<svg xmlns="http://www.w3.org/2000/svg" xmlns:xlink="http://www.w3.org/1999/xlink" viewBox="0 0 1000 1000" width="1000" height="1000" preserveAspectRatio="xMidYMid meet" style="width: 100%; height: 100%; transform: translate3d(0px, 0px, 0px); content-visibility: visible;"><defs><clipPath id="__lottie_element_755"><rect width="1000" height="1000" x="0" y="0"/></clipPath></defs><g clip-path="url(#__lottie_element_755)"><g transform="matrix(9.19987678527832,0.2610630691051483,-0.2610630691051483,9.19987678527832,445.3565979003906,249.20970153808594)" opacity="1" style="display: block;"><g opacity="1" transform="matrix(1,0,0,1,14.597000122070312,14.618000030517578)"><path fill="rgb(52,52,52)" fill-opacity="1" d=" M2.76200008392334,-0.0010000000474974513 C2.76200008392334,1.7020000219345093 0.6039999723434448,5.065999984741211 -0.921999990940094,5.065999984741211 C-2.447000026702881,5.065999984741211 -2.76200008392334,1.7020000219345093 -2.76200008392334,-0.0010000000474974513 C-2.76200008392334,-1.7039999961853027 -1.5260000228881836,-3.0829999446868896 -0.0010000000474974513,-3.0829999446868896 C1.524999976158142,-3.0829999446868896 2.76200008392334,-1.7039999961853027 2.76200008392334,-0.0010000000474974513z"/></g><g opacity="1" transform="matrix(1,0,0,1,9.581000328063965,8.291000366210938)"><path fill="rgb(52,52,52)" fill-opacity="1" d=" M2.9509999752044678,7.5329999923706055 C2.9509999752044678,7.5329999923706055 6.915999889373779,4.271999835968018 4.39300012588501,-2.880000114440918 C2.752000093460083,-7.533999919891357 -6.915999889373779,5.710000038146973 2.9509999752044678,7.5329999923706055z"/></g><g opacity="1" transform="matrix(1,0,0,1,7.853000164031982,12.927000045776367)"><path fill="rgb(251,195,167)" fill-opacity="1" d=" M-5.203999996185303,-5.1570000648498535 C-4.761000156402588,-7.953000068664551 -1.9769999980926514,-12.628000259399414 2.9690001010894775,-9.75100040435791 C4.525000095367432,-8.845000267028809 5.186999797821045,-7.195000171661377 5.502999782562256,-5.480000019073486 C5.723999977111816,-4.284999847412109 5.301000118255615,7.464000225067139 5.301000118255615,7.464000225067139 C4.881999969482422,12.17199993133545 -2.188999891281128,13.288999557495117 -2.431999921798706,7.557000160217285 C-2.431999921798706,7.557000160217285 -2.1410000324249268,3.631999969482422 -2.1410000324249268,3.631999969482422 C-5.723999977111816,2.4809999465942383 -5.701000213623047,-2.0179998874664307 -5.203999996185303,-5.1570000648498535z"/></g><g opacity="1" transform="matrix(1,0,0,1,8.538999557495117,17.076000213623047)"><path fill="rgb(184,122,119)" fill-opacity="1" d=" M-2.8269999027252197,-0.5170000195503235 C-2.8269999027252197,-0.5170000195503235 -0.8029999732971191,0.1599999964237213 3.015000104904175,-2.2130000591278076 C3.015000104904175,-2.2130000591278076 0.8690000176429749,0.9279999732971191 -3.015000104904175,2.2130000591278076 C-3.015000104904175,2.2130000591278076 -2.8269999027252197,-0.5170000195503235 -2.8269999027252197,-0.5170000195503235z"/></g><g opacity="1" transform="matrix(1,0,0,1,14.14900016784668,9.527999877929688)"><path fill="rgb(251,195,167)" fill-opacity="1" d=" M1.4769999980926514,-0.3580000102519989 C1.6749999523162842,0.4569999873638153 1.1740000247955322,1.2790000438690186 0.35899999737739563,1.4769999980926514 C-0.4569999873638153,1.6740000247955322 -1.2790000438690186,1.1740000247955322 -1.4769999980926514,0.35899999737739563 C-1.6749999523162842,-0.4569999873638153 -1.1740000247955322,-1.277999997138977 -0.35899999737739563,-1.4759999513626099 C0.4560000002384186,-1.6740000247955322 1.2790000438690186,-1.1729999780654907 1.4769999980926514,-0.3580000102519989z"/></g><g opacity="1" transform="matrix(1,0,0,1,14.14799976348877,9.553999900817871)"><path fill="rgb(52,52,52)" fill-opacity="1" d=" M-0.7039999961853027,0.39800000190734863 C-0.6890000104904175,0.23800000548362732 -0.6230000257492065,0.09200000017881393 -0.5289999842643738,-0.03500000014901161 C-0.4339999854564667,-0.164000004529953 -0.3019999861717224,-0.27300000190734863 -0.13500000536441803,-0.3370000123977661 C0.032999999821186066,-0.39899998903274536 0.23899999260902405,-0.3840000033378601 0.3889999985694885,-0.29899999499320984 C0.5460000038146973,-0.22200000286102295 0.6460000276565552,-0.08500000089406967 0.7039999961853027,0.05900000035762787 C0.5479999780654907,0.012000000104308128 0.42500001192092896,-0.0430000014603138 0.30300000309944153,-0.054999999701976776 C0.18400000035762787,-0.07000000029802322 0.0820000022649765,-0.06400000303983688 -0.023000000044703484,-0.023000000044703484 C-0.23600000143051147,0.05299999937415123 -0.4440000057220459,0.22300000488758087 -0.7039999961853027,0.39800000190734863z"/></g><g opacity="1" transform="matrix(1,0,0,1,6.173999786376953,13.211000442504883)"><path fill="rgb(52,52,52)" fill-opacity="1" d=" M-0.9279999732971191,-0.36500000953674316 C-0.7360000014305115,-0.28200000524520874 -0.5799999833106995,-0.1850000023841858 -0.42100000381469727,-0.12200000137090683 C-0.2639999985694885,-0.054999999701976776 -0.11900000274181366,-0.012000000104308128 0.01899999938905239,-0.014000000432133675 C0.15700000524520874,-0.013000000268220901 0.29600000381469727,-0.05400000140070915 0.4480000138282776,-0.12399999797344208 C0.5989999771118164,-0.19499999284744263 0.7519999742507935,-0.296999990940094 0.9279999732971191,-0.40400001406669617 C0.8939999938011169,-0.19900000095367432 0.7940000295639038,-0.010999999940395355 0.6380000114440918,0.13899999856948853 C0.4880000054836273,0.29100000858306885 0.26100000739097595,0.40400001406669617 0.017999999225139618,0.4020000100135803 C-0.22499999403953552,0.4020000100135803 -0.4449999928474426,0.29100000858306885 -0.5979999899864197,0.14800000190734863 C-0.7599999904632568,0.008999999612569809 -0.8659999966621399,-0.17000000178813934 -0.9279999732971191,-0.36500000953674316z"/></g><g opacity="1" transform="matrix(1,0,0,1,5.409999847412109,8.244999885559082)"><path fill="rgb(52,52,52)" fill-opacity="1" d=" M0.5920000076293945,-1.156000018119812 C0.6370000243186951,-0.9810000061988831 0.6150000095367432,-0.7919999957084656 0.5699999928474426,-0.6169999837875366 C0.5239999890327454,-0.4390000104904175 0.44600000977516174,-0.27300000190734863 0.3580000102519989,-0.11699999868869781 C0.17599999904632568,0.19499999284744263 -0.050999999046325684,0.4659999907016754 -0.3240000009536743,0.7009999752044678 C-0.3240000009536743,0.7009999752044678 -0.3499999940395355,0.4860000014305115 -0.3499999940395355,0.4860000014305115 C-0.05400000140070915,0.6919999718666077 0.23600000143051147,0.906000018119812 0.5049999952316284,1.156000018119812 C0.15700000524520874,1.0360000133514404 -0.16899999976158142,0.8830000162124634 -0.4909999966621399,0.7210000157356262 C-0.4909999966621399,0.7210000157356262 -0.6370000243186951,0.6480000019073486 -0.6370000243186951,0.6480000019073486 C-0.6370000243186951,0.6480000019073486 -0.5170000195503235,0.5049999952316284 -0.5170000195503235,0.5049999952316284 C-0.41200000047683716,0.3799999952316284 -0.30799999833106995,0.24400000274181366 -0.20399999618530273,0.11500000208616257 C-0.10199999809265137,-0.01899999938905239 0.003000000026077032,-0.15000000596046448 0.09799999743700027,-0.2849999964237213 C0.2919999957084656,-0.5569999814033508 0.47600001096725464,-0.8199999928474426 0.5920000076293945,-1.156000018119812z"/></g><g opacity="1" transform="matrix(1,0,0,1,8.288000106811523,8.359000205993652)"><path fill="rgb(52,52,52)" fill-opacity="1" d=" M-0.6159999966621399,-0.8130000233650208 C-0.6240000128746033,-0.5479999780654907 -0.6179999709129333,-0.27300000190734863 -0.578000009059906,-0.02500000037252903 C-0.5400000214576721,0.2240000069141388 -0.43799999356269836,0.4490000009536743 -0.3009999990463257,0.4819999933242798 C-0.17900000512599945,0.5360000133514404 0.03200000151991844,0.41100001335144043 0.20800000429153442,0.23199999332427979 C0.382999986410141,0.05400000140070915 0.550000011920929,-0.16300000250339508 0.699999988079071,-0.3779999911785126 C0.699999988079071,-0.3779999911785126 0.7039999961853027,-0.382999986410141 0.7039999961853027,-0.382999986410141 C0.7459999918937683,-0.4440000057220459 0.828000009059906,-0.45899999141693115 0.8880000114440918,-0.4169999957084656 C0.9399999976158142,-0.38100001215934753 0.9580000042915344,-0.3160000145435333 0.9359999895095825,-0.25999999046325684 C0.828000009059906,0.013000000268220901 0.6909999847412109,0.26499998569488525 0.49300000071525574,0.4970000088214874 C0.39399999380111694,0.6110000014305115 0.2800000011920929,0.7200000286102295 0.1289999932050705,0.8069999814033508 C-0.017000000923871994,0.890999972820282 -0.23800000548362732,0.9459999799728394 -0.4359999895095825,0.871999979019165 C-0.6320000290870667,0.8029999732971191 -0.7720000147819519,0.6359999775886536 -0.8370000123977661,0.47999998927116394 C-0.906000018119812,0.32199999690055847 -0.9319999814033508,0.16500000655651093 -0.9409999847412109,0.014000000432133675 C-0.9580000042915344,-0.289000004529953 -0.9150000214576721,-0.5709999799728394 -0.8360000252723694,-0.8519999980926514 C-0.8190000057220459,-0.9120000004768372 -0.7570000290870667,-0.9470000267028809 -0.6980000138282776,-0.9300000071525574 C-0.6470000147819519,-0.9169999957084656 -0.6140000224113464,-0.8690000176429749 -0.6159999966621399,-0.8180000185966492 C-0.6159999966621399,-0.8180000185966492 -0.6159999966621399,-0.8130000233650208 -0.6159999966621399,-0.8130000233650208z"/></g><g opacity="1" transform="matrix(1,0,0,1,3.9030001163482666,7.828999996185303)"><path fill="rgb(52,52,52)" fill-opacity="1" d=" M-0.44699999690055847,-0.7580000162124634 C-0.4560000002384186,-0.5080000162124634 -0.4580000042915344,-0.25099998712539673 -0.43799999356269836,-0.012000000104308128 C-0.42500001192092896,0.10700000077486038 -0.40799999237060547,0.22300000488758087 -0.37400001287460327,0.3179999887943268 C-0.3400000035762787,0.4169999957084656 -0.2930000126361847,0.46299999952316284 -0.2680000066757202,0.4620000123977661 C-0.25200000405311584,0.47099998593330383 -0.18199999630451202,0.453000009059906 -0.10199999809265137,0.38499999046325684 C-0.02199999988079071,0.32199999690055847 0.05400000140070915,0.23199999332427979 0.12800000607967377,0.13899999856948853 C0.27399998903274536,-0.05000000074505806 0.4129999876022339,-0.26600000262260437 0.5440000295639038,-0.4779999852180481 C0.5440000295639038,-0.4779999852180481 0.5479999780654907,-0.4819999933242798 0.5479999780654907,-0.4819999933242798 C0.5870000123977661,-0.5440000295639038 0.6679999828338623,-0.5630000233650208 0.7300000190734863,-0.5249999761581421 C0.7829999923706055,-0.492000013589859 0.8040000200271606,-0.42800000309944153 0.7860000133514404,-0.3720000088214874 C0.7039999961853027,-0.1120000034570694 0.5979999899864197,0.13199999928474426 0.4449999928474426,0.36500000953674316 C0.36899998784065247,0.4819999933242798 0.2809999883174896,0.593999981880188 0.16300000250339508,0.6990000009536743 C0.10199999809265137,0.7509999871253967 0.03200000151991844,0.8009999990463257 -0.05700000002980232,0.8370000123977661 C-0.1459999978542328,0.8740000128746033 -0.26600000262260437,0.8930000066757202 -0.3779999911785126,0.859000027179718 C-0.48899999260902405,0.8289999961853027 -0.5839999914169312,0.753000020980835 -0.640999972820282,0.6740000247955322 C-0.6990000009536743,0.593999981880188 -0.7319999933242798,0.5130000114440918 -0.753000020980835,0.43700000643730164 C-0.7940000295639038,0.28299999237060547 -0.8040000200271606,0.14000000059604645 -0.8009999990463257,0.0010000000474974513 C-0.7950000166893005,-0.27900001406669617 -0.7459999918937683,-0.5410000085830688 -0.6669999957084656,-0.8009999990463257 C-0.6489999890327454,-0.8600000143051147 -0.5860000252723694,-0.8930000066757202 -0.5270000100135803,-0.8740000128746033 C-0.47699999809265137,-0.8600000143051147 -0.4449999928474426,-0.8140000104904175 -0.44699999690055847,-0.7639999985694885 C-0.44699999690055847,-0.7639999985694885 -0.44699999690055847,-0.7580000162124634 -0.44699999690055847,-0.7580000162124634z"/></g><g opacity="1" transform="matrix(1,0,0,1,8.829999923706055,6.3480000495910645)"><path fill="rgb(52,52,52)" fill-opacity="1" d=" M0.6299999952316284,0.10000000149011612 C0.6000000238418579,0.29499998688697815 0.2930000126361847,0.4099999964237213 -0.054999999701976776,0.35499998927116394 C-0.40400001406669617,0.30000001192092896 -0.6610000133514404,0.09700000286102295 -0.6309999823570251,-0.09799999743700027 C-0.6010000109672546,-0.29499998688697815 -0.2930000126361847,-0.4099999964237213 0.054999999701976776,-0.35499998927116394 C0.40299999713897705,-0.30000001192092896 0.6600000262260437,-0.09600000083446503 0.6299999952316284,0.10000000149011612z"/></g><g opacity="1" transform="matrix(1,0,0,1,4.026000022888184,5.923999786376953)"><path fill="rgb(52,52,52)" fill-opacity="1" d=" M0.6000000238418579,-0.20800000429153442 C0.6679999828338623,-0.020999999716877937 0.45500001311302185,0.22499999403953552 0.12399999797344208,0.33899998664855957 C-0.20800000429153442,0.45399999618530273 -0.531000018119812,0.39500001072883606 -0.6000000238418579,0.20800000429153442 C-0.6679999828338623,0.019999999552965164 -0.45500001311302185,-0.22499999403953552 -0.12300000339746475,-0.33899998664855957 C0.20800000429153442,-0.45399999618530273 0.5320000052452087,-0.39500001072883606 0.6000000238418579,-0.20800000429153442z"/></g><g opacity="1" transform="matrix(1,0,0,1,9.161999702453613,6.13100004196167)"><path fill="rgb(52,52,52)" fill-opacity="1" d=" M-5.445000171661377,-1.2699999809265137 C-5.445000171661377,-1.2699999809265137 -2.424999952316284,-0.6179999709129333 1.659999966621399,-2.9549999237060547 C1.659999966621399,-2.9549999237060547 0.18299999833106995,4.992000102996826 4.145999908447266,2.135999917984009 C4.145999908447266,2.135999917984009 4.697000026702881,1.7139999866485596 5.288000106811523,1.8899999856948853 C5.288000106811523,1.8899999856948853 5.445000171661377,1.940999984741211 5.445000171661377,1.940999984741211 C5.445000171661377,1.940999984741211 5.223999977111816,-3.4560000896453857 1.902999997138977,-4.6020002365112305 C-1.4170000553131104,-5.749000072479248 -5.473999977111816,-4.953999996185303 -5.445000171661377,-1.2699999809265137z"/></g></g><g transform="matrix(6.900765895843506,-0.01399482972919941,0.01399482972919941,6.900765895843506,587.3804931640625,280.5054016113281)" opacity="1" style="display: block;"><g opacity="1" transform="matrix(1,0,0,1,25.792999267578125,18.913999557495117)"><path fill="rgb(251,195,167)" fill-opacity="1" d=" M-2.184999942779541,10.463000297546387 C-4.126999855041504,11.979000091552734 -6.675000190734863,13.140999794006348 -9.045999526977539,13.991000175476074 C-9.727999687194824,11.41100025177002 -10.32800006866455,8.814000129699707 -10.77299976348877,6.191999912261963 C-8.920000076293945,5.809000015258789 -6.895999908447266,5.113999843597412 -4.988999843597412,3.815000057220459 C-2.0910000801086426,1.840000033378601 1.7669999599456787,-5.453000068664551 2.7320001125335693,-7.339000225067139 C2.7799999713897705,-7.438000202178955 2.8289999961853027,-7.5370001792907715 2.877000093460083,-7.636000156402588 C2.877000093460083,-7.636000156402588 2.869999885559082,-7.638999938964844 2.869999885559082,-7.638999938964844 C2.869999885559082,-7.638999938964844 3.618000030517578,-9.619000434875488 3.7179999351501465,-9.918000221252441 C3.9700000286102295,-10.668000221252441 4.2769999504089355,-12.52299976348877 4.2769999504089355,-12.52299976348877 C4.2769999504089355,-12.52299976348877 4.824999809265137,-12.704000473022461 4.918000221252441,-11.449000358581543 C5.010000228881836,-10.192999839782715 5.2270002365112305,-10.565999984741211 5.2270002365112305,-10.565999984741211 C5.2270002365112305,-10.565999984741211 7.502999782562256,-13.991000175476074 8.154999732971191,-13.847000122070312 C8.39799976348877,-13.791999816894531 8.149999618530273,-13.010000228881836 7.76200008392334,-12.559000015258789 C7.375,-12.109999656677246 6.973999977111816,-11.406999588012695 6.973999977111816,-11.406999588012695 C6.973999977111816,-11.406999588012695 9.194000244140625,-13.861000061035156 9.789999961853027,-13.571999549865723 C9.789999961853027,-13.571999549865723 10.086000442504883,-13.383000373840332 9.37600040435791,-12.654000282287598 C8.390999794006348,-11.642999649047852 7.74399995803833,-10.722999572753906 7.74399995803833,-10.722999572753906 C7.74399995803833,-10.722999572753906 9.994999885559082,-12.680000305175781 10.286999702453613,-12.52299976348877 C10.77299976348877,-12.263999938964844 8.493000030517578,-10.267999649047852 8.152000427246094,-9.57800006866455 C8.152000427246094,-9.57800006866455 9.836999893188477,-11.166999816894531 9.932000160217285,-10.722000122070312 C10.02299976348877,-10.295999526977539 8.098999977111816,-8.619000434875488 7.22599983215332,-6.375 C7.160999774932861,-6.15500020980835 7.079999923706055,-5.9029998779296875 6.98199987411499,-5.622000217437744 C6.98199987411499,-5.622000217437744 6.982999801635742,-5.623000144958496 6.982999801635742,-5.623000144958496 C6.982999801635742,-5.623000144958496 4.679999828338623,5.1020002365112305 -2.184999942779541,10.463000297546387z"/></g><g opacity="1" transform="matrix(1,0,0,1,16.05900001525879,24.18899917602539)"><path fill="rgb(250,167,61)" fill-opacity="1" d=" M14.604999542236328,-8.694999694824219 C15.680000305175781,-7.771999835968018 16.059999465942383,-6.2789998054504395 15.54800033569336,-4.958000183105469 C14.119000434875488,-1.2690000534057617 10.993000030517578,5.908999919891357 7.614999771118164,8.005000114440918 C4.326000213623047,10.032999992370605 -3.8410000801086426,9.593999862670898 -8.246999740600586,9.175999641418457 C-9.715999603271484,9.036999702453613 -12.77299976348877,8.845999717712402 -13.059000015258789,7.3979997634887695 C-13.059000015258789,7.3979997634887695 -14.614999771118164,5.064000129699707 -14.614999771118164,5.064000129699707 C-16.46500015258789,3.1089999675750732 -14.534000396728516,-1.3279999494552612 -11.895000457763672,-1.8650000095367432 C-9.88599967956543,-1.9550000429153442 -3.6760001182556152,-0.39500001072883606 0.6539999842643738,-0.5460000038146973 C0.6449999809265137,-0.5460000038146973 0.6349999904632568,-0.5460000038146973 0.6349999904632568,-0.5350000262260437 C0.5550000071525574,-0.45500001311302185 1.1740000247955322,0.164000004529953 1.6050000190734863,1.1239999532699585 C2.053999900817871,2.055000066757202 2.125999927520752,2.936000108718872 2.244999885559082,2.936000108718872 C2.2950000762939453,2.936000108718872 2.3450000286102295,2.7160000801086426 2.325000047683716,2.3459999561309814 C2.315000057220459,1.9759999513626099 2.2049999237060547,1.465000033378601 1.975000023841858,0.9539999961853027 C1.7339999675750732,0.4350000023841858 1.4160000085830688,0.03500000014901161 1.1460000276565552,-0.2150000035762787 C0.9160000085830688,-0.4339999854564667 0.7250000238418579,-0.5460000038146973 0.6539999842643738,-0.5460000038146973 C0.8840000033378601,-0.5550000071525574 1.1050000190734863,-0.5640000104904175 1.3140000104904175,-0.5849999785423279 C1.3140000104904175,-0.4650000035762787 2.003999948501587,-0.2150000035762787 2.7639999389648438,0.23600000143051147 C3.5439999103546143,0.6859999895095825 4.105999946594238,1.1759999990463257 4.185999870300293,1.0959999561309814 C4.264999866485596,1.0260000228881836 3.805000066757202,0.37400001287460327 2.9649999141693115,-0.11500000208616257 C2.4560000896453857,-0.41600000858306885 1.9639999866485596,-0.5649999976158142 1.6540000438690186,-0.6150000095367432 C2.4240000247955322,-0.6949999928474426 3.1050000190734863,-0.8450000286102295 3.6540000438690186,-1.1050000190734863 C5.736000061035156,-2.0829999446868896 8.020999908447266,-5.326000213623047 9.585000038146973,-7.906000137329102 C10.652000427246094,-9.663999557495117 13.043999671936035,-10.034000396728516 14.604999542236328,-8.694999694824219z"/></g><g opacity="1" transform="matrix(1,0,0,1,17.509000778198242,25.384000778198242)"><path fill="rgb(240,88,65)" fill-opacity="1" d=" M0.875,1.149999976158142 C0.8949999809265137,1.5199999809265137 0.8450000286102295,1.7400000095367432 0.7950000166893005,1.7400000095367432 C0.675000011920929,1.7400000095367432 0.6050000190734863,0.8610000014305115 0.1550000011920929,-0.07000000029802322 C-0.2750000059604645,-1.0299999713897705 -0.8949999809265137,-1.649999976158142 -0.8149999976158142,-1.7300000190734863 C-0.8149999976158142,-1.7410000562667847 -0.8050000071525574,-1.7400000095367432 -0.7950000166893005,-1.7400000095367432 C-0.7250000238418579,-1.7400000095367432 -0.5350000262260437,-1.6299999952316284 -0.3050000071525574,-1.4110000133514404 C-0.03500000014901161,-1.1610000133514404 0.2849999964237213,-0.7590000033378601 0.5249999761581421,-0.23999999463558197 C0.7549999952316284,0.2709999978542328 0.8650000095367432,0.7799999713897705 0.875,1.149999976158142z"/></g><g opacity="1" transform="matrix(1,0,0,1,18.850000381469727,24.4689998626709)"><path fill="rgb(240,88,65)" fill-opacity="1" d=" M1.3949999809265137,0.8149999976158142 C1.315000057220459,0.8949999809265137 0.7549999952316284,0.4050000011920929 -0.02500000037252903,-0.04500000178813934 C-0.7850000262260437,-0.4959999918937683 -1.475000023841858,-0.7459999918937683 -1.475000023841858,-0.8659999966621399 C-1.3550000190734863,-0.8659999966621399 -1.2450000047683716,-0.875 -1.1349999904632568,-0.8949999809265137 C-0.824999988079071,-0.8450000286102295 -0.33500000834465027,-0.6959999799728394 0.17499999701976776,-0.39500001072883606 C1.0149999856948853,0.09399999678134918 1.475000023841858,0.7450000047683716 1.3949999809265137,0.8149999976158142z"/></g><g opacity="1" transform="matrix(1,0,0,1,17.509000778198242,25.384000778198242)"><path fill="rgb(52,52,52)" fill-opacity="1" d=" M0.7950000166893005,1.7400000095367432 C0.675000011920929,1.7400000095367432 0.6050000190734863,0.8600000143051147 0.1550000011920929,-0.07100000232458115 C-0.2750000059604645,-1.031000018119812 -0.8949999809265137,-1.649999976158142 -0.8149999976158142,-1.7300000190734863 C-0.8149999976158142,-1.7400000095367432 -0.8050000071525574,-1.7400000095367432 -0.7950000166893005,-1.7400000095367432 C-0.7250000238418579,-1.7400000095367432 -0.5350000262260437,-1.6299999952316284 -0.3050000071525574,-1.409999966621399 C-0.03500000014901161,-1.159999966621399 0.2849999964237213,-0.7599999904632568 0.5249999761581421,-0.23999999463558197 C0.7549999952316284,0.27000001072883606 0.8650000095367432,0.7799999713897705 0.875,1.149999976158142 C0.8949999809265137,1.5199999809265137 0.8450000286102295,1.7400000095367432 0.7950000166893005,1.7400000095367432z"/></g><g opacity="1" transform="matrix(1,0,0,1,18.850000381469727,24.45400047302246)"><path fill="rgb(52,52,52)" fill-opacity="1" d=" M1.3949999809265137,0.8299999833106995 C1.315000057220459,0.9100000262260437 0.7549999952316284,0.41999998688697815 -0.02500000037252903,-0.029999999329447746 C-0.7850000262260437,-0.48100000619888306 -1.475000023841858,-0.7310000061988831 -1.475000023841858,-0.8510000109672546 C-1.475000023841858,-0.8510000109672546 -1.475000023841858,-0.8600000143051147 -1.475000023841858,-0.8600000143051147 C-1.465000033378601,-0.8999999761581421 -1.3350000381469727,-0.9100000262260437 -1.1349999904632568,-0.8799999952316284 C-0.824999988079071,-0.8299999833106995 -0.33500000834465027,-0.6809999942779541 0.17499999701976776,-0.3799999952316284 C1.0149999856948853,0.10899999737739563 1.475000023841858,0.7599999904632568 1.3949999809265137,0.8299999833106995z"/></g></g><g transform="matrix(6.858962059020996,-1.098434567451477,1.098434567451477,6.858962059020996,253.8098602294922,369.4236145019531)" opacity="1" style="display: block;"><g opacity="1" transform="matrix(1,0,0,1,8.744999885559082,19.54599952697754)"><path fill="rgb(251,195,167)" fill-opacity="1" d=" M-2.505000114440918,2.065999984741211 C-2.505000114440918,2.065999984741211 -0.9929999709129333,-2.624000072479248 -0.9929999709129333,-2.624000072479248 C-0.9929999709129333,-2.624000072479248 2.505000114440918,-1.4320000410079956 2.505000114440918,-1.4320000410079956 C2.505000114440918,-1.4320000410079956 2.3459999561309814,2.624000072479248 2.3459999561309814,2.624000072479248 C2.3459999561309814,2.624000072479248 -2.505000114440918,2.065999984741211 -2.505000114440918,2.065999984741211z"/></g><g opacity="1" transform="matrix(1,0,0,1,14.156000137329102,25.207000732421875)"><path fill="rgb(250,167,61)" fill-opacity="1" d=" M11.265999794006348,-12.460000038146973 C11.265999794006348,-12.460000038146973 11.265999794006348,-12.460000038146973 11.265999794006348,-12.460000038146973 C12.555999755859375,-12.366000175476074 13.383999824523926,-11.04800033569336 12.90999984741211,-9.845000267028809 C12.90999984741211,-9.845000267028809 10.229000091552734,-3.0380001068115234 10.229000091552734,-3.0380001068115234 C10.229000091552734,-3.0380001068115234 8.515999794006348,0.75 8.515999794006348,0.75 C4.276000022888184,5.21999979019165 -3.4549999237060547,12.569999694824219 -8.395000457763672,12.569999694824219 C-11.255000114440918,12.569999694824219 -13.383999824523926,5.449999809265137 -8.574000358581543,-3.7309999465942383 C-8.574000358581543,-3.7309999465942383 -7.894999980926514,-3.6500000953674316 -7.894999980926514,-3.6500000953674316 C-7.894999980926514,-3.6500000953674316 -3.063999891281128,-3.061000108718872 -3.063999891281128,-3.061000108718872 C-3.063999891281128,-3.061000108718872 -2.5139999389648438,-2.990000009536743 -2.5139999389648438,-2.990000009536743 C-2.5139999389648438,-2.990000009536743 -2.6740000247955322,-2.440000057220459 -2.6740000247955322,-2.440000057220459 C-2.6740000247955322,-2.440000057220459 -2.6740000247955322,-2.430000066757202 -2.6740000247955322,-2.430000066757202 C-2.6740000247955322,-2.430000066757202 -3.624000072479248,0.949999988079071 -3.624000072479248,0.949999988079071 C-3.5439999103546143,0.8500000238418579 -3.4649999141693115,0.75 -3.3949999809265137,0.6489999890327454 C-2.0450000762939453,-1.1009999513626099 -0.7540000081062317,-2.7100000381469727 0.3959999978542328,-4.130000114440918 C0.7459999918937683,-4.539999961853027 1.065000057220459,-4.940000057220459 1.3849999904632568,-5.320000171661377 C3.4549999237060547,-7.840000152587891 4.965000152587891,-9.569999694824219 5.445000171661377,-10.079999923706055 C7.585000038146973,-12.310999870300293 9.895999908447266,-12.569999694824219 11.265999794006348,-12.449999809265137 C11.265999794006348,-12.449999809265137 11.265999794006348,-12.460000038146973 11.265999794006348,-12.460000038146973z"/></g><g opacity="1" transform="matrix(1,0,0,1,10.470000267028809,26.424999237060547)"><path fill="rgb(52,52,52)" fill-opacity="1" d=" M-1.2059999704360962,3.9579999446868896 C-1.3109999895095825,3.931999921798706 -0.9359999895095825,2.1110000610351562 -0.2680000066757202,-0.07699999958276749 C0.39800000190734863,-2.2690000534057617 1.1030000448226929,-3.986999988555908 1.2039999961853027,-3.950000047683716 C1.309999942779541,-3.9130001068115234 0.7760000228881836,-2.1419999599456787 0.11299999803304672,0.03999999910593033 C-0.5519999861717224,2.2190001010894775 -1.0980000495910645,3.9860000610351562 -1.2059999704360962,3.9579999446868896z"/></g><g opacity="1" transform="matrix(1,0,0,1,10.793000221252441,11.982999801635742)"><path fill="rgb(248,163,128)" fill-opacity="1" d=" M-0.24899999797344208,1.1759999990463257 C0.03700000047683716,0.875 0.875,-0.04100000113248825 0.878000020980835,-0.45100000500679016 C0.8820000290870667,-1.1749999523162842 -0.3490000069141388,0.125 -0.8830000162124634,0.7250000238418579 C-0.6589999794960022,0.8679999709129333 -0.4410000145435333,1.0169999599456787 -0.24899999797344208,1.1759999990463257z"/></g><g opacity="1" transform="matrix(1,0,0,1,13.538000106811523,16.768999099731445)"><path fill="rgb(111,90,71)" fill-opacity="1" d=" M-8.161999702453613,-9.5600004196167 C-7.98799991607666,-9.940999984741211 -7.484000205993652,-10.024999618530273 -7.197999954223633,-9.718999862670898 C-5.875999927520752,-8.312000274658203 -2.9119999408721924,-4.771999835968018 -1.4220000505447388,-2.374000072479248 C0.6899999976158142,1.024999976158142 2.0889999866485596,3.253000020980835 2.0889999866485596,3.253000020980835 C2.0889999866485596,3.253000020980835 8.272000312805176,8.593000411987305 8.272000312805176,8.593000411987305 C8.272000312805176,8.593000411987305 5.6579999923706055,10.024999618530273 3.3380000591278076,7.948999881744385 C1.5820000171661377,6.377999782562256 0.7649999856948853,3.5980000495910645 0.7649999856948853,3.5980000495910645 C0.7649999856948853,3.5980000495910645 -4.613999843597412,-6.064000129699707 -8.005000114440918,-8.866999626159668 C-8.210000038146973,-9.03600025177002 -8.272000312805176,-9.319000244140625 -8.161999702453613,-9.5600004196167z"/></g><g opacity="1" transform="matrix(1,0,0,1,10.35099983215332,16.075000762939453)"><path fill="rgb(251,195,167)" fill-opacity="1" d=" M-2.5280001163482666,3.2950000762939453 C-2.9070000648498535,1.7710000276565552 -2.934999942779541,-0.6990000009536743 -2.953000068664551,-1.621999979019165 C-2.9690001010894775,-2.436000108718872 -2.440000057220459,-2.7899999618530273 -2.0989999771118164,-2.9860000610351562 C-0.6909999847412109,-3.7980000972747803 2.1710000038146973,-4.386000156402588 2.2780001163482666,-3.984999895095825 C2.365000009536743,-3.6570000648498535 -0.10599999874830246,-2.8570001125335693 -0.10599999874830246,-2.8570001125335693 C-0.10599999874830246,-2.8570001125335693 2.9690001010894775,-3.36299991607666 2.364000082015991,-2.6630001068115234 C2.0409998893737793,-2.2899999618530273 0.31299999356269836,-2.1440000534057617 0.31299999356269836,-2.1440000534057617 C0.31299999356269836,-2.1440000534057617 2.188999891281128,-1.9459999799728394 2.0460000038146973,-1.6710000038146973 C1.7910000085830688,-1.1829999685287476 0.24799999594688416,-1.25 0.24799999594688416,-1.25 C0.24799999594688416,-1.25 0.9900000095367432,-0.6259999871253967 1.2059999704360962,0.953000009059906 C1.3630000352859497,2.1010000705718994 -0.9919999837875366,4.386000156402588 -0.9919999837875366,4.386000156402588 C-0.9919999837875366,4.386000156402588 -2.5280001163482666,3.2950000762939453 -2.5280001163482666,3.2950000762939453z"/></g><g opacity="1" transform="matrix(1,0,0,1,9.864999771118164,15.034000396728516)"><path fill="rgb(52,52,52)" fill-opacity="1" d=" M-0.7419999837875366,0.12099999934434891 C-0.7599999904632568,0.052000001072883606 -0.42500001192092896,-0.09000000357627869 0.00800000037997961,-0.12300000339746475 C0.22200000286102295,-0.14300000667572021 0.41499999165534973,-0.13500000536441803 0.5329999923706055,-0.14499999582767487 C0.6499999761581421,-0.14800000190734863 0.6990000009536743,-0.1940000057220459 0.7379999756813049,-0.18199999630451202 C0.753000020980835,-0.17399999499320984 0.7590000033378601,-0.14499999582767487 0.7379999756813049,-0.09799999743700027 C0.7179999947547913,-0.04899999871850014 0.6600000262260437,0.0020000000949949026 0.5849999785423279,0.03500000014901161 C0.4339999854564667,0.10199999809265137 0.23999999463558197,0.12099999934434891 0.03099999949336052,0.1420000046491623 C-0.3840000033378601,0.17399999499320984 -0.7239999771118164,0.1940000057220459 -0.7419999837875366,0.12099999934434891z"/></g></g><g transform="matrix(13.732150077819824,0,0,14.573599815368652,398.08026123046875,399.9696044921875)" opacity="1" style="display: block;"><g opacity="1" transform="matrix(1,0,0,1,9.95300006866455,14.526000022888184)"><path fill="rgb(240,88,65)" fill-opacity="1" d=" M2.9749999046325684,2.3320000171661377 C2.9749999046325684,2.3320000171661377 10.152999877929688,19.034000396728516 10.152999877929688,19.034000396728516 C10.152999877929688,19.034000396728516 -12.270999908447266,19.9060001373291 -12.270999908447266,19.9060001373291 C-12.270999908447266,19.9060001373291 -12.881999969482422,19.586000442504883 -12.881999969482422,19.586000442504883 C-12.961999893188477,19.676000595092773 -7.216000080108643,0.6209999918937683 -7.296000003814697,0.7110000252723694 C-7.3460001945495605,0.7609999775886536 -7.245999813079834,0.6520000100135803 -7.296000003814697,0.7110000252723694 C-7.296000003814697,0.7110000252723694 -7.933000087738037,-12.293999671936035 -7.933000087738037,-12.293999671936035 C-7.853000164031982,-12.324999809265137 -7.7829999923706055,-12.345000267028809 -7.703000068664551,-12.364999771118164 C-6.993000030517578,-12.583999633789062 -7.03000020980835,-12.654999732971191 -6.46999979019165,-12.654999732971191 C-6.269999980926514,-12.654999732971191 -6.090000152587891,-12.645000457763672 -5.920000076293945,-12.635000228881836 C-5.920000076293945,-12.635000228881836 -3.693000078201294,-12.423999786376953 -3.693000078201294,-12.423999786376953 C-3.4730000495910645,-11.645000457763672 -3.128999948501587,-10.3100004196167 -0.859000027179718,-10.100000381469727 C0.7310000061988831,-9.951000213623047 2.565999984741211,-11.73799991607666 2.6110000610351562,-11.840999603271484 C2.6110000610351562,-11.840999603271484 4.15500020980835,-12.498000144958496 4.15500020980835,-12.498000144958496 C4.15500020980835,-12.498000144958496 7.063000202178955,-12.338000297546387 7.063000202178955,-12.338000297546387 C7.063000202178955,-12.338000297546387 2.934999942779541,1.9520000219345093 2.934999942779541,1.9520000219345093 C2.634999990463257,1.9119999408721924 3.125,1.9730000495910645 2.934999942779541,1.9520000219345093 C2.934999942779541,1.9520000219345093 2.9749999046325684,2.3320000171661377 2.9749999046325684,2.3320000171661377z"/></g></g><g transform="matrix(12.243590354919434,0,0,12.243590354919434,369.8542785644531,390.39312744140625)" opacity="1" style="display: block;"><g opacity="1" transform="matrix(1,0,0,1,13.684000015258789,27.152999877929688)"><path fill="rgb(78,47,7)" fill-opacity="1" d=" M-8.269000053405762,-16.731000900268555 C-8.269000053405762,-16.731000900268555 3.0450000762939453,-16.952999114990234 3.0450000762939453,-16.952999114990234 C3.0450000762939453,-16.952999114990234 4.1539998054504395,2.3480000495910645 4.1539998054504395,2.3480000495910645 C4.1539998054504395,2.3480000495910645 11.918999671936035,16.76799964904785 11.918999671936035,16.76799964904785 C11.918999671936035,16.76799964904785 -11.918999671936035,16.952999114990234 -11.918999671936035,16.952999114990234 C-11.918999671936035,16.952999114990234 -11.027000427246094,4.7829999923706055 -11.027000427246094,4.7829999923706055 C-11.027000427246094,4.7829999923706055 -8.269000053405762,-16.731000900268555 -8.269000053405762,-16.731000900268555z"/><path fill="rgb(78,47,7)" fill-opacity="1" d=" M-8.269000053405762,-16.731000900268555 C-8.269000053405762,-16.731000900268555 3.0450000762939453,-16.952999114990234 3.0450000762939453,-16.952999114990234 C3.0450000762939453,-16.952999114990234 4.1539998054504395,2.3480000495910645 4.1539998054504395,2.3480000495910645 C4.1539998054504395,2.3480000495910645 11.918999671936035,16.76799964904785 11.918999671936035,16.76799964904785 C11.918999671936035,16.76799964904785 -11.918999671936035,16.952999114990234 -11.918999671936035,16.952999114990234 C-11.918999671936035,16.952999114990234 -11.027000427246094,4.7829999923706055 -11.027000427246094,4.7829999923706055 C-11.027000427246094,4.7829999923706055 -8.269000053405762,-16.731000900268555 -8.269000053405762,-16.731000900268555z"/></g><g opacity="1" transform="matrix(1,0,0,0.8589199781417847,17.624000549316406,6.314000129699707)"><path fill="rgb(52,52,52)" fill-opacity="1" d=" M-1,4.5329999923706055 C-1.187000036239624,4.507999897003174 -1.059000015258789,2.4170000553131104 -0.5009999871253967,-0.09600000083446503 C0.05299999937415123,-2.6110000610351562 0.8180000185966492,-4.559999942779541 0.9990000128746033,-4.504000186920166 C1.187000036239624,-4.446000099182129 0.7289999723434448,-2.428999900817871 0.18199999630451202,0.054999999701976776 C-0.3700000047683716,2.5369999408721924 -0.8050000071525574,4.559999942779541 -1,4.5329999923706055z"/></g><g opacity="1" transform="matrix(1,0,0,0.8454399704933167,7.224999904632568,5.986999988555908)"><path fill="rgb(52,52,52)" fill-opacity="1" d=" M1.7680000066757202,-5.0970001220703125 C1.843000054359436,-5.019999980926514 1.4390000104904175,-4.566999912261963 1.0609999895095825,-3.693000078201294 C0.6679999828338623,-2.8299999237060547 0.3400000035762787,-1.5210000276565552 -0.06599999964237213,-0.07599999755620956 C-0.8690000176429749,2.805000066757202 -1.4639999866485596,5.164000034332275 -1.6579999923706055,5.127999782562256 C-1.843999981880188,5.093999862670898 -1.5520000457763672,2.6519999504089355 -0.7400000095367432,-0.2639999985694885 C-0.3319999873638153,-1.7089999914169312 0.07800000160932541,-3.0390000343322754 0.621999979019165,-3.9210000038146973 C1.1519999504089355,-4.809999942779541 1.715999960899353,-5.164000034332275 1.7680000066757202,-5.0970001220703125z"/></g><g opacity="1" transform="matrix(1,0,0,1,26.030000686645508,30.11199951171875)"><path fill="rgb(52,52,52)" fill-opacity="1" d=" M-2.0260000228881836,2.3239998817443848 C-2.055999994277954,2.2200000286102295 -1.0729999542236328,1.9210000038146973 0.382999986410141,1.2009999752044678 C0.7379999756813049,1.0190000534057617 1.1180000305175781,0.8029999732971191 1.4119999408721924,0.4950000047683716 C1.4850000143051147,0.4180000126361847 1.5520000457763672,0.335999995470047 1.6089999675750732,0.24699999392032623 C1.6660000085830688,0.16099999845027924 1.7239999771118164,0.054999999701976776 1.7419999837875366,-0.012000000104308128 C1.7619999647140503,-0.0860000029206276 1.7419999837875366,-0.09200000017881393 1.7400000095367432,-0.09600000083446503 C1.74399995803833,-0.09700000286102295 1.694000005722046,-0.125 1.6089999675750732,-0.12800000607967377 C1.524999976158142,-0.13099999725818634 1.4220000505447388,-0.11299999803304672 1.3320000171661377,-0.07900000363588333 C1.2410000562667847,-0.041999999433755875 1.1130000352859497,0.020999999716877937 1.00600004196167,0.08500000089406967 C0.7820000052452087,0.2160000056028366 0.5600000023841858,0.38100001215934753 0.328000009059906,0.5590000152587891 C-0.14399999380111694,0.9210000038146973 -0.6299999952316284,1.2960000038146973 -1.1299999952316284,1.6779999732971191 C-1.2029999494552612,1.7339999675750732 -1.2760000228881836,1.7890000343322754 -1.343000054359436,1.840000033378601 C-1.343000054359436,1.840000033378601 -1.812999963760376,1.3270000219345093 -1.812999963760376,1.3270000219345093 C-1.0110000371932983,0.45399999618530273 -0.41999998688697815,-0.5249999761581421 -0.02500000037252903,-1.468999981880188 C-0.02500000037252903,-1.468999981880188 0.04699999839067459,-1.6460000276565552 0.04699999839067459,-1.6460000276565552 C0.07100000232458115,-1.7059999704360962 0.09700000286102295,-1.7660000324249268 0.10499999672174454,-1.7960000038146973 C0.11699999868869781,-1.8320000171661377 0.11800000071525574,-1.8669999837875366 0.11900000274181366,-1.8609999418258667 C0.11400000005960464,-1.8580000400543213 0.15199999511241913,-1.784999966621399 0.19699999690055847,-1.774999976158142 C0.25200000405311584,-1.75600004196167 0.2709999978542328,-1.7760000228881836 0.24799999594688416,-1.7680000066757202 C0.22699999809265137,-1.7599999904632568 0.19699999690055847,-1.74399995803833 0.15399999916553497,-1.7120000123977661 C0.06300000101327896,-1.6440000534057617 -0.028999999165534973,-1.5809999704360962 -0.1120000034570694,-1.5080000162124634 C-0.4519999921321869,-1.2289999723434448 -0.7289999723434448,-0.9120000004768372 -0.9610000252723694,-0.6050000190734863 C-1.4229999780654907,0.014000000432133675 -1.7259999513626099,0.5830000042915344 -1.9520000219345093,0.9649999737739563 C-2.174999952316284,1.350000023841858 -2.313999891281128,1.559000015258789 -2.3580000400543213,1.5399999618530273 C-2.4010000228881836,1.5199999809265137 -2.3450000286102295,1.2760000228881836 -2.194000005722046,0.8519999980926514 C-2.0399999618530273,0.4300000071525574 -1.8020000457763672,-0.18199999630451202 -1.3609999418258667,-0.8830000162124634 C-1.1390000581741333,-1.2319999933242798 -0.859000027179718,-1.600000023841858 -0.48899999260902405,-1.9390000104904175 C-0.4000000059604645,-2.0269999504089355 -0.2980000078678131,-2.1059999465942383 -0.19699999690055847,-2.188999891281128 C-0.1459999978542328,-2.2309999465942383 -0.07100000232458115,-2.2820000648498535 0.02199999988079071,-2.322000026702881 C0.1120000034570694,-2.3610000610351562 0.2630000114440918,-2.4059998989105225 0.4359999895095825,-2.3350000381469727 C0.5989999771118164,-2.2769999504089355 0.7149999737739563,-2.0869998931884766 0.7269999980926514,-1.9579999446868896 C0.746999979019165,-1.8250000476837158 0.7289999723434448,-1.7300000190734863 0.7089999914169312,-1.6410000324249268 C0.6850000023841858,-1.5460000038146973 0.6600000262260437,-1.4880000352859497 0.6389999985694885,-1.4240000247955322 C0.6389999985694885,-1.4240000247955322 0.5680000185966492,-1.2319999933242798 0.5680000185966492,-1.2319999933242798 C0.1809999942779541,-0.2070000022649765 -0.4359999895095825,0.8569999933242798 -1.2970000505447388,1.7990000247955322 C-1.2970000505447388,1.7990000247955322 -1.7660000324249268,1.284999966621399 -1.7660000324249268,1.284999966621399 C-1.6990000009536743,1.2330000400543213 -1.6260000467300415,1.1779999732971191 -1.5529999732971191,1.121999979019165 C-1.0509999990463257,0.7429999709129333 -0.5600000023841858,0.37299999594688416 -0.0860000029206276,0.014000000432133675 C0.15399999916553497,-0.164000004529953 0.40400001406669617,-0.3449999988079071 0.6759999990463257,-0.4950000047683716 C0.8169999718666077,-0.5720000267028809 0.9430000185966492,-0.6370000243186951 1.1130000352859497,-0.6990000009536743 C1.2869999408721924,-0.7570000290870667 1.4609999656677246,-0.7820000052452087 1.649999976158142,-0.7710000276565552 C1.8309999704360962,-0.753000020980835 2.066999912261963,-0.7009999752044678 2.2360000610351562,-0.4860000014305115 C2.4010000228881836,-0.27799999713897705 2.3929998874664307,0.010999999940395355 2.3269999027252197,0.17800000309944153 C2.2639999389648438,0.35600000619888306 2.183000087738037,0.4699999988079071 2.0989999771118164,0.5899999737739563 C2.015000104904175,0.7080000042915344 1.9190000295639038,0.8119999766349792 1.8200000524520874,0.906000018119812 C1.4199999570846558,1.281000018119812 0.9779999852180481,1.4850000143051147 0.5899999737739563,1.649999976158142 C-0.972000002861023,2.2780001163482666 -2.00600004196167,2.4059998989105225 -2.0260000228881836,2.3239998817443848z"/></g><g opacity="1" transform="matrix(1,0,0,1,25.25,33.08399963378906)"><path fill="rgb(52,52,52)" fill-opacity="1" d=" M7.035999774932861,3.9200000762939453 C6.979000091552734,3.8980000019073486 7.117000102996826,3.631999969482422 7.034999847412109,3.174999952316284 C6.953000068664551,2.7300000190734863 6.567999839782715,2.1040000915527344 5.8480000495910645,1.687000036239624 C5.5,1.4869999885559082 5.039000034332275,1.3459999561309814 4.546000003814697,1.2510000467300415 C4.047999858856201,1.1549999713897705 3.496000051498413,1.1080000400543213 2.9019999504089355,1.0570000410079956 C2.312000036239624,1.0010000467300415 1.6640000343322754,0.9459999799728394 1.003000020980835,0.7540000081062317 C0.3499999940395355,0.5630000233650208 -0.33000001311302185,0.2590000033378601 -0.8809999823570251,-0.289000004529953 C-1.1660000085830688,-0.5730000138282776 -1.3940000534057617,-0.9229999780654907 -1.524999976158142,-1.284999966621399 C-1.524999976158142,-1.284999966621399 -1.559999942779541,-1.3830000162124634 -1.559999942779541,-1.3830000162124634 C-1.559999942779541,-1.3830000162124634 -1.531999945640564,-1.5019999742507935 -1.531999945640564,-1.5019999742507935 C-1.4930000305175781,-1.6729999780654907 -1.319000005722046,-1.8519999980926514 -1.1519999504089355,-1.8949999809265137 C-0.9850000143051147,-1.9479999542236328 -0.843999981880188,-1.9320000410079956 -0.718999981880188,-1.8969999551773071 C-0.593999981880188,-1.8600000143051147 -0.47999998927116394,-1.7990000247955322 -0.3790000081062317,-1.7020000219345093 C-0.27799999713897705,-1.6080000400543213 -0.1899999976158142,-1.4639999866485596 -0.17100000381469727,-1.2970000505447388 C-0.13899999856948853,-0.9879999756813049 -0.29499998688697815,-0.7480000257492065 -0.47099998593330383,-0.6019999980926514 C-0.6510000228881836,-0.4560000002384186 -0.8529999852180481,-0.38600000739097595 -1.062000036239624,-0.36399999260902405 C-1.5140000581741333,-0.335999995470047 -1.8259999752044678,-0.5460000038146973 -2.0739998817443848,-0.722000002861023 C-2.319000005722046,-0.9079999923706055 -2.51200008392334,-1.0759999752044678 -2.7230000495910645,-1.2450000047683716 C-3.546999931335449,-1.9170000553131104 -4.295000076293945,-2.4809999465942383 -4.968999862670898,-2.871999979019165 C-6.316999912261963,-3.6630001068115234 -7.307000160217285,-3.7660000324249268 -7.285999774932861,-3.878000020980835 C-7.2820000648498535,-3.9159998893737793 -7.031000137329102,-3.941999912261963 -6.583000183105469,-3.877000093460083 C-6.135000228881836,-3.815000057220459 -5.48799991607666,-3.6440000534057617 -4.749000072479248,-3.2860000133514404 C-4.007999897003174,-2.930999994277954 -3.194999933242798,-2.382999897003174 -2.3399999141693115,-1.7339999675750732 C-1.9160000085830688,-1.4279999732971191 -1.4459999799728394,-0.9789999723434448 -1.1260000467300415,-1.0299999713897705 C-1.0449999570846558,-1.0399999618530273 -0.9580000042915344,-1.0759999752044678 -0.9079999923706055,-1.121999979019165 C-0.8820000290870667,-1.1440000534057617 -0.8659999966621399,-1.1660000085830688 -0.859000027179718,-1.184000015258789 C-0.8550000190734863,-1.1920000314712524 -0.8529999852180481,-1.2000000476837158 -0.8510000109672546,-1.2079999446868896 C-0.8510000109672546,-1.2120000123977661 -0.8519999980926514,-1.215999960899353 -0.8500000238418579,-1.2200000286102295 C-0.8500000238418579,-1.2200000286102295 -0.8500000238418579,-1.222000002861023 -0.8500000238418579,-1.222000002861023 C-0.8500000238418579,-1.222000002861023 -0.8500000238418579,-1.2230000495910645 -0.8500000238418579,-1.2230000495910645 C-0.859000027179718,-1.2230000495910645 -0.765999972820282,-1.2200000286102295 -0.8050000071525574,-1.222000002861023 C-0.8050000071525574,-1.222000002861023 -0.8050000071525574,-1.2209999561309814 -0.8050000071525574,-1.2209999561309814 C-0.8050000071525574,-1.2209999561309814 -0.7990000247955322,-1.2209999561309814 -0.7990000247955322,-1.2209999561309814 C-0.796999990940094,-1.222000002861023 -0.8090000152587891,-1.2200000286102295 -0.8330000042915344,-1.2070000171661377 C-0.859000027179718,-1.1890000104904175 -0.8410000205039978,-1.2029999494552612 -0.8529999852180481,-1.2039999961853027 C-0.8619999885559082,-1.2130000591278076 -0.8859999775886536,-1.2259999513626099 -0.9089999794960022,-1.2330000400543213 C-0.9210000038146973,-1.2350000143051147 -0.9300000071525574,-1.2359999418258667 -0.9359999895095825,-1.2369999885559082 C-0.9390000104904175,-1.2380000352859497 -0.9380000233650208,-1.2309999465942383 -0.9409999847412109,-1.2400000095367432 C-0.9440000057220459,-1.2619999647140503 -0.9449999928474426,-1.277999997138977 -0.9539999961853027,-1.2990000247955322 C-0.9800000190734863,-1.3769999742507935 -1.0119999647140503,-1.3530000448226929 -0.9210000038146973,-1.3250000476837158 C-0.9210000038146973,-1.3250000476837158 -0.871999979019165,-1.524999976158142 -0.871999979019165,-1.524999976158142 C-0.7739999890327454,-1.2599999904632568 -0.6050000190734863,-1.003000020980835 -0.382999986410141,-0.7820000052452087 C0.041999999433755875,-0.35499998927116394 0.6190000176429749,-0.07999999821186066 1.1990000009536743,0.09700000286102295 C1.777999997138977,0.2759999930858612 2.38100004196167,0.34299999475479126 2.9709999561309814,0.41600000858306885 C4.14300012588501,0.5450000166893005 5.28000020980835,0.7229999899864197 6.109000205993652,1.2680000066757202 C6.920000076293945,1.815999984741211 7.295000076293945,2.5950000286102295 7.304999828338623,3.1470000743865967 C7.306000232696533,3.7109999656677246 7.059000015258789,3.941999912261963 7.035999774932861,3.9200000762939453z"/></g></g><g transform="matrix(0.8235300183296204,0,0,0.5955899953842163,755.1766967773438,815.0739135742188)" opacity="1" style="display: block;"><g opacity="1" transform="matrix(1,0,0,1,0,0)"><path stroke-linecap="butt" stroke-linejoin="miter" fill-opacity="0" stroke-miterlimit="4" stroke-dasharray=" 367" stroke-dashoffset="-342.36676025390625" stroke="rgb(255,255,255)" stroke-opacity="1" stroke-width="10" d=" M-364,-50 C-364,-50 -294,-106 -362,-202 C-430,-298 -322,-346 -322,-346"/></g></g><g transform="matrix(0.5882400274276733,0,0,0.42541998624801636,761.4134521484375,765.3381958007812)" opacity="1" style="display: block;"><g opacity="1" transform="matrix(1,0,0,1,0,0)"><path stroke-linecap="butt" stroke-linejoin="miter" fill-opacity="0" stroke-miterlimit="4" stroke-dasharray=" 367" stroke-dashoffset="127.90415954589844" stroke="rgb(255,255,255)" stroke-opacity="1" stroke-width="10" d=" M-364,-50 C-364,-50 -294,-106 -362,-202 C-430,-298 -322,-346 -322,-346"/></g></g><g transform="matrix(0.4845300018787384,0,0,0.3504199981689453,706.49267578125,593.5881958007812)" opacity="1" style="display: block;"><g opacity="1" transform="matrix(1,0,0,1,0,0)"><path stroke-linecap="butt" stroke-linejoin="miter" fill-opacity="0" stroke-miterlimit="4" stroke-dasharray=" 367" stroke-dashoffset="320.7889709472656" stroke="rgb(255,255,255)" stroke-opacity="1" stroke-width="10" d=" M-364,-50 C-364,-50 -294,-106 -362,-202 C-430,-298 -322,-346 -322,-346"/></g></g><g transform="matrix(0.4153999984264374,0,0,0.30041998624801636,629.8823852539062,583.0881958007812)" opacity="1" style="display: block;"><g opacity="1" transform="matrix(1,0,0,1,0,0)"><path stroke-linecap="butt" stroke-linejoin="miter" fill-opacity="0" stroke-miterlimit="4" stroke-dasharray=" 367" stroke-dashoffset="-93.62894439697266" stroke="rgb(255,255,255)" stroke-opacity="1" stroke-width="10" d=" M-364,-50 C-364,-50 -294,-106 -362,-202 C-430,-298 -322,-346 -322,-346"/></g></g><g transform="matrix(12.59235954284668,0,0,12.59235954284668,-72.3599853515625,566.375732421875)" opacity="1" style="display: block;"><g opacity="1" transform="matrix(1,0,0,1,46.75199890136719,27.610000610351562)"><path fill="rgb(240,205,85)" fill-opacity="1" d=" M35.500999450683594,0.8799999952316284 C35.500999450683594,0.8799999952316284 -35.500999450683594,0.8799999952316284 -35.500999450683594,0.8799999952316284 C-35.500999450683594,0.8799999952316284 -35.500999450683594,-0.8809999823570251 -35.500999450683594,-0.8809999823570251 C-35.500999450683594,-0.8809999823570251 35.500999450683594,-0.8809999823570251 35.500999450683594,-0.8809999823570251 C35.500999450683594,-0.8809999823570251 35.500999450683594,0.8799999952316284 35.500999450683594,0.8799999952316284z"/></g><g opacity="1" transform="matrix(1,0,0,1,47.63999938964844,25.858999252319336)"><path fill="rgb(52,52,52)" fill-opacity="1" d=" M-14.54699993133545,-0.9240000247955322 C-14.54699993133545,-0.9240000247955322 14.54699993133545,-0.9240000247955322 14.54699993133545,-0.9240000247955322 C14.54699993133545,-0.9240000247955322 14.54699993133545,0.9240000247955322 14.54699993133545,0.9240000247955322 C14.54699993133545,0.9240000247955322 -14.54699993133545,0.9240000247955322 -14.54699993133545,0.9240000247955322 C-14.54699993133545,0.9240000247955322 -14.54699993133545,-0.9240000247955322 -14.54699993133545,-0.9240000247955322z"/></g><g opacity="1" transform="matrix(1,0,0,1,34.61899948120117,15.795999526977539)"><path fill="rgb(52,52,52)" fill-opacity="1" d=" M1.2280000448226929,-0.5809999704360962 C1.2710000276565552,-0.6269999742507935 1.5609999895095825,0.03099999949336052 1.9809999465942383,1.1519999504089355 C1.9809999465942383,1.1519999504089355 2.0759999752044678,1.4019999504089355 2.0759999752044678,1.4019999504089355 C2.0759999752044678,1.4019999504089355 1.8049999475479126,1.3569999933242798 1.8049999475479126,1.3569999933242798 C0.984000027179718,1.218999981880188 -0.026000000536441803,0.9290000200271606 -1.0759999752044678,0.4749999940395355 C-1.3890000581741333,0.3400000035762787 -1.7430000305175781,0.15399999916553497 -1.9329999685287476,-0.19300000369548798 C-2.0280001163482666,-0.3619999885559082 -2.0759999752044678,-0.5709999799728394 -2.0360000133514404,-0.7710000276565552 C-1.9989999532699585,-0.972000002861023 -1.8739999532699585,-1.1469999551773071 -1.718999981880188,-1.253000020980835 C-1.5640000104904175,-1.3630000352859497 -1.3830000162124634,-1.3969999551773071 -1.2200000286102295,-1.4019999504089355 C-1.2200000286102295,-1.4019999504089355 -1.0989999771118164,-1.399999976158142 -1.0989999771118164,-1.399999976158142 C-1.0989999771118164,-1.399999976158142 -1,-1.3930000066757202 -1,-1.3930000066757202 C-0.9330000281333923,-1.3880000114440918 -0.8669999837875366,-1.38100004196167 -0.8019999861717224,-1.3760000467300415 C-0.5299999713897705,-1.3550000190734863 -0.2750000059604645,-1.281000018119812 -0.06700000166893005,-1.2059999704360962 C0.3540000021457672,-1.0520000457763672 0.6769999861717224,-0.9010000228881836 0.8989999890327454,-0.7919999957084656 C1.1360000371932983,-0.675000011920929 1.25,-0.5979999899864197 1.2280000448226929,-0.5809999704360962 C1.2059999704360962,-0.5640000104904175 1.0670000314712524,-0.5870000123977661 0.843999981880188,-0.6460000276565552 C0.5820000171661377,-0.7229999899864197 0.24899999797344208,-0.8209999799728394 -0.1509999930858612,-0.9380000233650208 C-0.3619999885559082,-0.9940000176429749 -0.5770000219345093,-1.0410000085830688 -0.8240000009536743,-1.0460000038146973 C-0.8880000114440918,-1.0479999780654907 -0.9539999961853027,-1.0509999990463257 -1.0199999809265137,-1.0529999732971191 C-1.0199999809265137,-1.0529999732971191 -1.1230000257492065,-1.0570000410079956 -1.1230000257492065,-1.0570000410079956 C-1.1230000257492065,-1.0570000410079956 -1.2070000171661377,-1.0529999732971191 -1.2070000171661377,-1.0529999732971191 C-1.315000057220459,-1.0440000295639038 -1.4259999990463257,-1.0180000066757202 -1.5069999694824219,-0.9520000219345093 C-1.6759999990463257,-0.8299999833106995 -1.7209999561309814,-0.5950000286102295 -1.593000054359436,-0.38499999046325684 C-1.4709999561309814,-0.16599999368190765 -1.2139999866485596,-0.01600000075995922 -0.9179999828338623,0.10899999737739563 C0.10199999809265137,0.5519999861717224 1.090000033378601,0.8659999966621399 1.8600000143051147,1.0490000247955322 C1.8600000143051147,1.0490000247955322 1.684000015258789,1.253000020980835 1.684000015258789,1.253000020980835 C1.3650000095367432,0.19099999964237213 1.184999942779541,-0.5360000133514404 1.2280000448226929,-0.5809999704360962z"/></g><g opacity="1" transform="matrix(1,0,0,1,56.209999084472656,15.793999671936035)"><path fill="rgb(52,52,52)" fill-opacity="1" d=" M-1.2280000448226929,-0.5789999961853027 C-1.184999942779541,-0.5339999794960022 -1.3660000562667847,0.19300000369548798 -1.684000015258789,1.2549999952316284 C-1.684000015258789,1.2549999952316284 -1.8609999418258667,1.0509999990463257 -1.8609999418258667,1.0509999990463257 C-1.090999960899353,0.8679999709129333 -0.10499999672174454,0.5540000200271606 0.9139999747276306,0.11299999803304672 C0.9919999837875366,0.08100000023841858 1.065000057220459,0.04800000041723251 1.128000020980835,0.014000000432133675 C1.1979999542236328,-0.017000000923871994 1.2569999694824219,-0.057999998331069946 1.315999984741211,-0.09799999743700027 C1.4320000410079956,-0.17900000512599945 1.531999945640564,-0.27399998903274536 1.590000033378601,-0.3799999952316284 C1.7200000286102295,-0.5899999737739563 1.6779999732971191,-0.8230000138282776 1.5099999904632568,-0.9470000267028809 C1.3420000076293945,-1.0779999494552612 1.1019999980926514,-1.062999963760376 0.8489999771118164,-1.0269999504089355 C0.6019999980926514,-0.9929999709129333 0.3709999918937683,-0.9419999718666077 0.1589999943971634,-0.8930000066757202 C-0.6869999766349792,-0.6890000104904175 -1.2079999446868896,-0.5239999890327454 -1.2280000448226929,-0.5789999961853027 C-1.246999979019165,-0.628000020980835 -0.7620000243186951,-0.8859999775886536 0.08399999886751175,-1.1649999618530273 C0.29600000381469727,-1.2319999933242798 0.531000018119812,-1.3009999990463257 0.7940000295639038,-1.3519999980926514 C0.9309999942779541,-1.375 1.055999994277954,-1.4049999713897705 1.2280000448226929,-1.399999976158142 C1.3910000324249268,-1.3930000066757202 1.5709999799728394,-1.3550000190734863 1.725000023841858,-1.2450000047683716 C1.878999948501587,-1.1380000114440918 2.002000093460083,-0.9620000123977661 2.0380001068115234,-0.7620000243186951 C2.0759999752044678,-0.5609999895095825 2.0260000228881836,-0.3529999852180481 1.9290000200271606,-0.1860000044107437 C1.7389999628067017,0.1589999943971634 1.3830000162124634,0.3449999988079071 1.0720000267028809,0.4790000021457672 C0.023000000044703484,0.9319999814033508 -0.9860000014305115,1.2209999561309814 -1.8049999475479126,1.3589999675750732 C-1.8049999475479126,1.3589999675750732 -2.0759999752044678,1.406000018119812 -2.0759999752044678,1.406000018119812 C-2.0759999752044678,1.406000018119812 -1.9819999933242798,1.1540000438690186 -1.9819999933242798,1.1540000438690186 C-1.5609999895095825,0.032999999821186066 -1.2710000276565552,-0.625 -1.2280000448226929,-0.5789999961853027z"/></g><g opacity="1" transform="matrix(1,0,0,1,45.56800079345703,19.179000854492188)"><path fill="rgb(150,198,199)" fill-opacity="1" d=" M0.0010000000474974513,5.7820000648498535 C0.0010000000474974513,5.7820000648498535 0.0010000000474974513,5.7820000648498535 0.0010000000474974513,5.7820000648498535 C-5.335999965667725,5.7820000648498535 -9.664999961853027,1.4550000429153442 -9.664999961853027,-3.882999897003174 C-9.664999961853027,-3.882999897003174 -9.664999961853027,-5.7820000648498535 -9.664999961853027,-5.7820000648498535 C-9.664999961853027,-5.7820000648498535 9.664999961853027,-5.7820000648498535 9.664999961853027,-5.7820000648498535 C9.664999961853027,-5.7820000648498535 9.664999961853027,-3.882999897003174 9.664999961853027,-3.882999897003174 C9.664999961853027,1.4550000429153442 5.3379998207092285,5.7820000648498535 0.0010000000474974513,5.7820000648498535z"/></g><g opacity="1" transform="matrix(1,0,0,1,45.5359992980957,13.430999755859375)"><path fill="rgb(218,240,243)" fill-opacity="1" d=" M9.784000396728516,0.20200000703334808 C9.784000396728516,0.20200000703334808 -9.784000396728516,0.20200000703334808 -9.784000396728516,0.20200000703334808 C-9.784000396728516,0.20200000703334808 -9.784000396728516,-0.20200000703334808 -9.784000396728516,-0.20200000703334808 C-9.784000396728516,-0.20200000703334808 9.784000396728516,-0.20200000703334808 9.784000396728516,-0.20200000703334808 C9.784000396728516,-0.20200000703334808 9.784000396728516,0.20200000703334808 9.784000396728516,0.20200000703334808z"/></g><g opacity="1" transform="matrix(1,0,0,1,22.898000717163086,16.47100067138672)"><path fill="rgb(179,223,217)" fill-opacity="1" d=" M-4,-7.73799991607666 C-4,-7.73799991607666 4,-7.73799991607666 4,-7.73799991607666 C4,-7.73799991607666 4,7.73799991607666 4,7.73799991607666 C4,7.73799991607666 -4,7.73799991607666 -4,7.73799991607666 C-4,7.73799991607666 -4,-7.73799991607666 -4,-7.73799991607666z"/></g><g opacity="1" transform="matrix(1,0,0,1,22.898000717163086,18.724000930786133)"><path fill="rgb(204,233,230)" fill-opacity="1" d=" M3.4619998931884766,5.09499979019165 C3.4619998931884766,5.09499979019165 -3.4630000591278076,5.09499979019165 -3.4630000591278076,5.09499979019165 C-3.4630000591278076,5.09499979019165 -3.4630000591278076,-5.09499979019165 -3.4630000591278076,-5.09499979019165 C-3.4630000591278076,-5.09499979019165 3.4619998931884766,-5.09499979019165 3.4619998931884766,-5.09499979019165 C3.4619998931884766,-5.09499979019165 3.4619998931884766,5.09499979019165 3.4619998931884766,5.09499979019165z"/></g><g opacity="1" transform="matrix(1,0,0,1,22.863000869750977,14.87600040435791)"><path stroke-linecap="round" stroke-linejoin="miter" fill-opacity="0" stroke-miterlimit="10" stroke="rgb(204,233,230)" stroke-opacity="1" stroke-width="1.301" d=" M-3.013000011444092,3.937999963760376 C-3.013000011444092,3.937999963760376 3.013000011444092,-3.937999963760376 3.013000011444092,-3.937999963760376"/></g><g opacity="1" transform="matrix(1,0,0,1,22.509000778198242,13.631999969482422)"><path stroke-linecap="round" stroke-linejoin="miter" fill-opacity="0" stroke-miterlimit="10" stroke="rgb(204,233,230)" stroke-opacity="1" stroke-width="1.301" d=" M-2.63700008392334,3.5380001068115234 C-2.63700008392334,3.5380001068115234 2.63700008392334,-3.5380001068115234 2.63700008392334,-3.5380001068115234"/></g><g opacity="1" transform="matrix(1,0,0,1,13.883999824523926,8.267000198364258)"><path fill="rgb(59,102,87)" fill-opacity="1" d=" M4.494999885559082,4.184000015258789 C4.494999885559082,4.184000015258789 3.447999954223633,2.0799999237060547 3.0420000553131104,0.3089999854564667 C2.805000066757202,-0.7250000238418579 1.7269999980926514,-5.323999881744385 1.3459999561309814,-4.76200008392334 C0.9649999737739563,-4.202000141143799 1.7599999904632568,-1.569000005722046 2.134999990463257,-0.3709999918937683 C2.437000036239624,0.5950000286102295 3.4560000896453857,3.4790000915527344 3.4560000896453857,3.4790000915527344 C3.4560000896453857,3.4790000915527344 0.48899999260902405,-2.3529999256134033 -0.4129999876022339,-2.4730000495910645 C-1.315999984741211,-2.5940001010894775 0.20999999344348907,-0.367000013589859 0.515999972820282,0.08699999749660492 C1.5369999408721924,1.6009999513626099 2.2179999351501465,2.5850000381469727 3.115000009536743,3.740000009536743 C3.115000009536743,3.740000009536743 -3.180000066757202,-2.384000062942505 -3.8369998931884766,-1.4769999980926514 C-4.49399995803833,-0.5709999799728394 -1.4429999589920044,0.7039999961853027 -0.019999999552965164,1.7549999952316284 C1.0709999799728394,2.562000036239624 3.430000066757202,4.51800012588501 3.430000066757202,4.51800012588501 C3.430000066757202,4.51800012588501 3.0920000076293945,3.9519999027252197 1.8739999532699585,3.1540000438690186 C0.03999999910593033,1.9529999494552612 -3.1540000438690186,0.4950000047683716 -3.3420000076293945,1.1130000352859497 C-3.5980000495910645,1.9520000219345093 -1.8109999895095825,2.23799991607666 -0.28299999237060547,2.825000047683716 C3.121000051498413,4.132999897003174 3.5160000324249268,5.323999881744385 3.5160000324249268,5.323999881744385 C3.5160000324249268,5.323999881744385 4.494999885559082,4.184000015258789 4.494999885559082,4.184000015258789z"/></g><g opacity="1" transform="matrix(1,0,0,1,20.840999603271484,18.166000366210938)"><path fill="rgb(245,138,63)" fill-opacity="1" d=" M-1.1859999895095825,-5.635000228881836 C-1.1859999895095825,-5.635000228881836 -2.055999994277954,-6.864999771118164 -3.492000102996826,-5.8480000495910645 C-4.927999973297119,-4.830999851226807 -4.015999794006348,-3.013000011444092 -3.5739998817443848,-2.5139999389648438 C-3.131999969482422,-2.015000104904175 0.8820000290870667,2.134000062942505 1.4190000295639038,3.1480000019073486 C1.9559999704360962,4.1620001792907715 3.759000062942505,6.864999771118164 4.343999862670898,6.6539998054504395 C4.927999973297119,6.441999912261963 4.482999801635742,5.73799991607666 4.244999885559082,3.9749999046325684 C4.00600004196167,2.2119998931884766 3.187999963760376,0.2770000100135803 2.124000072479248,-1.0290000438690186 C1.059999942779541,-2.3329999446868896 -1.1859999895095825,-5.635000228881836 -1.1859999895095825,-5.635000228881836z"/></g><g opacity="1" transform="matrix(1,0,0,1,19.195999145507812,14.263999938964844)"><path fill="rgb(216,109,67)" fill-opacity="1" d=" M1.031999945640564,-0.7120000123977661 C0.2529999911785126,-0.48899999260902405 -0.25999999046325684,0.2240000069141388 -1.0829999446868896,0.3479999899864197 C-1.3329999446868896,0.38499999046325684 -1.2259999513626099,0.7639999985694885 -0.9779999852180481,0.7250000238418579 C-0.164000004529953,0.6029999852180481 0.453000009059906,-0.03099999949336052 1.1619999408721924,-0.4020000100135803 C1.3329999446868896,-0.492000013589859 1.215999960899353,-0.7649999856948853 1.031999945640564,-0.7120000123977661z"/></g><g opacity="1" transform="matrix(1,0,0,1,20.643999099731445,16.034000396728516)"><path fill="rgb(216,109,67)" fill-opacity="1" d=" M0.871999979019165,-0.718999981880188 C0.5649999976158142,-0.6499999761581421 0.28700000047683716,-0.4390000104904175 0.020999999716877937,-0.2750000059604645 C-0.27300000190734863,-0.09399999678134918 -0.5640000104904175,0.08900000154972076 -0.8569999933242798,0.2709999978542328 C-1.0740000009536743,0.4050000011920929 -0.8759999871253967,0.7480000257492065 -0.6589999794960022,0.6119999885559082 C-0.367000013589859,0.42899999022483826 -0.0729999989271164,0.24699999392032623 0.21899999678134918,0.06199999898672104 C0.48399999737739563,-0.10400000214576721 0.7990000247955322,-0.26100000739097595 0.996999979019165,-0.5059999823570251 C1.0750000476837158,-0.6029999852180481 1.003000020980835,-0.7480000257492065 0.871999979019165,-0.718999981880188z"/></g><g opacity="1" transform="matrix(1,0,0,1,22.315000534057617,18.117000579833984)"><path fill="rgb(216,109,67)" fill-opacity="1" d=" M0.6990000009536743,-0.6970000267028809 C0.41200000047683716,-0.5350000262260437 0.1459999978542328,-0.335999995470047 -0.12600000202655792,-0.15000000596046448 C-0.38199999928474426,0.024000000208616257 -0.656000018119812,0.18700000643730164 -0.8889999985694885,0.3919999897480011 C-1.0509999990463257,0.5350000262260437 -0.8420000076293945,0.7910000085830688 -0.6610000133514404,0.6869999766349792 C-0.37700000405311584,0.5230000019073486 -0.11500000208616257,0.3109999895095825 0.15399999916553497,0.12300000339746475 C0.4090000092983246,-0.05299999937415123 0.671999990940094,-0.2240000069141388 0.9039999842643738,-0.4309999942779541 C1.0499999523162842,-0.5609999895095825 0.8629999756813049,-0.7910000085830688 0.6990000009536743,-0.6970000267028809z"/></g><g opacity="1" transform="matrix(1,0,0,1,23.80299949645996,20.638999938964844)"><path fill="rgb(216,109,67)" fill-opacity="1" d=" M0.5979999899864197,-0.5870000123977661 C0.37599998712539673,-0.5 0.1770000010728836,-0.3580000102519989 -0.023000000044703484,-0.2290000021457672 C-0.23499999940395355,-0.09099999815225601 -0.45100000500679016,0.04100000113248825 -0.656000018119812,0.18700000643730164 C-0.8529999852180481,0.3269999921321869 -0.6759999990463257,0.6470000147819519 -0.4620000123977661,0.5170000195503235 C-0.2460000067949295,0.3869999945163727 -0.039000000804662704,0.2409999966621399 0.17100000381469727,0.10000000149011612 C0.36800000071525574,-0.029999999329447746 0.5830000042915344,-0.1550000011920929 0.7509999871253967,-0.32499998807907104 C0.8529999852180481,-0.42899999022483826 0.75,-0.6470000147819519 0.5979999899864197,-0.5870000123977661z"/></g><g opacity="1" transform="matrix(1,0,0,1,27.0939998626709,20.527000427246094)"><path fill="rgb(169,188,139)" fill-opacity="1" d=" M0.5920000076293945,4.372000217437744 C0.5920000076293945,4.372000217437744 5.928999900817871,-0.9639999866485596 2.371999979019165,-1.4079999923706055 C-1.1859999895095825,-1.8539999723434448 -2.9649999141693115,1.4079999923706055 -2.9649999141693115,1.4079999923706055 C-2.9649999141693115,1.4079999923706055 0.8880000114440918,-3.7790000438690186 -2.5199999809265137,-4.372000217437744 C-5.928999900817871,-4.965000152587891 -5.336999893188477,4.965000152587891 -5.336999893188477,4.965000152587891 C-5.336999893188477,4.965000152587891 0.5920000076293945,4.372000217437744 0.5920000076293945,4.372000217437744z"/></g><g opacity="1" transform="matrix(1,0,0,1,16.209999084472656,19.711000442504883)"><path fill="rgb(52,119,83)" fill-opacity="1" d=" M5.632999897003174,4.743000030517578 C5.632999897003174,4.743000030517578 7.26200008392334,-4.890999794006348 3.259999990463257,-4.593999862670898 C-0.7419999837875366,-4.297999858856201 0.4449999928474426,0.0010000000474974513 0.4449999928474426,0.0010000000474974513 C0.4449999928474426,0.0010000000474974513 -0.8899999856948853,-5.781000137329102 -3.4100000858306885,-4.298999786376953 C-5.928999900817871,-2.816999912261963 -2.2230000495910645,1.7790000438690186 -2.2230000495910645,1.7790000438690186 C-2.2230000495910645,1.7790000438690186 -7.26200008392334,-0.5929999947547913 -6.520999908447266,1.4819999933242798 C-5.78000020980835,3.555999994277954 -1.4819999933242798,5.781000137329102 -1.4819999933242798,5.781000137329102 C-1.4819999933242798,5.781000137329102 5.632999897003174,4.743000030517578 5.632999897003174,4.743000030517578z"/></g><g opacity="1" transform="matrix(1,0,0,1,20.700000762939453,25.413000106811523)"><path fill="rgb(233,208,201)" fill-opacity="1" d=" M-5.734000205993652,1.4930000305175781 C-5.734000205993652,1.4930000305175781 5.734000205993652,1.4930000305175781 5.734000205993652,1.4930000305175781 C7.382999897003174,1.4930000305175781 8.720999717712402,0.15600000321865082 8.720999717712402,-1.4930000305175781 C8.720999717712402,-1.4930000305175781 -8.720999717712402,-1.4930000305175781 -8.720999717712402,-1.4930000305175781 C-8.720999717712402,0.15600000321865082 -7.382999897003174,1.4930000305175781 -5.734000205993652,1.4930000305175781z"/></g><g opacity="1" transform="matrix(1,0,0,1,19.81800079345703,23.847999572753906)"><path fill="rgb(241,230,225)" fill-opacity="1" d=" M-2.0869998931884766,0.6740000247955322 C-2.0869998931884766,-0.4779999852180481 -1.152999997138977,-2.759999990463257 -0.0010000000474974513,-2.759999990463257 C1.1519999504089355,-2.759999990463257 2.0869998931884766,-0.4779999852180481 2.0869998931884766,0.6740000247955322 C2.0869998931884766,1.8259999752044678 1.1519999504089355,2.759999990463257 -0.0010000000474974513,2.759999990463257 C-1.152999997138977,2.759999990463257 -2.0869998931884766,1.8259999752044678 -2.0869998931884766,0.6740000247955322z"/></g><g opacity="1" transform="matrix(1,0,0,1,24.770999908447266,23.847999572753906)"><path fill="rgb(241,230,225)" fill-opacity="1" d=" M-2.0869998931884766,0.6740000247955322 C-2.0869998931884766,-0.4779999852180481 -1.1510000228881836,-2.759999990463257 0.0010000000474974513,-2.759999990463257 C1.152999997138977,-2.759999990463257 2.0869998931884766,-0.4779999852180481 2.0869998931884766,0.6740000247955322 C2.0869998931884766,1.8259999752044678 1.152999997138977,2.759999990463257 0.0010000000474974513,2.759999990463257 C-1.1510000228881836,2.759999990463257 -2.0869998931884766,1.8259999752044678 -2.0869998931884766,0.6740000247955322z"/></g><g opacity="1" transform="matrix(1,0,0,1,29.724000930786133,23.847999572753906)"><path fill="rgb(241,230,225)" fill-opacity="1" d=" M-2.0869998931884766,0.6740000247955322 C-2.0869998931884766,-0.4779999852180481 -1.1510000228881836,-2.759999990463257 0.0010000000474974513,-2.759999990463257 C1.152999997138977,-2.759999990463257 2.0869998931884766,-0.4779999852180481 2.0869998931884766,0.6740000247955322 C2.0869998931884766,1.8259999752044678 1.152999997138977,2.759999990463257 0.0010000000474974513,2.759999990463257 C-1.1510000228881836,2.759999990463257 -2.0869998931884766,1.8259999752044678 -2.0869998931884766,0.6740000247955322z"/></g><g opacity="1" transform="matrix(1,0,0,1,24.777000427246094,25.37700080871582)"><path fill="rgb(91,93,154)" fill-opacity="1" d=" M7.190999984741211,-1.5299999713897705 C7.190999984741211,-1.5299999713897705 -7.186999797821045,-1.5299999713897705 -7.186999797821045,-1.5299999713897705 C-7.548999786376953,-1.5299999713897705 -7.8420000076293945,-1.2359999418258667 -7.8420000076293945,-0.875 C-7.8420000076293945,-0.6489999890327454 -7.8460001945495605,-0.42399999499320984 -7.8460001945495605,-0.1979999989271164 C-7.8460001945495605,-0.09000000357627869 -7.8460001945495605,0.01899999938905239 -7.843999862670898,0.12700000405311584 C-7.840000152587891,0.3619999885559082 -7.571000099182129,0.2800000011920929 -7.418000221252441,0.2800000011920929 C-7.232999801635742,0.2800000011920929 -7.072000026702881,0.40700000524520874 -7.0289998054504395,0.5870000123977661 C-6.8979997634887695,1.1390000581741333 -6.40500020980835,1.5299999713897705 -5.836999893188477,1.5299999713897705 C-5.836999893188477,1.5299999713897705 -4.067999839782715,1.5299999713897705 -4.067999839782715,1.5299999713897705 C-3.500999927520752,1.5299999713897705 -3.007999897003174,1.1390000581741333 -2.877000093460083,0.5870000123977661 C-2.8340001106262207,0.40700000524520874 -2.6730000972747803,0.2800000011920929 -2.48799991607666,0.2800000011920929 C-2.48799991607666,0.2800000011920929 -2.4630000591278076,0.2800000011920929 -2.4630000591278076,0.2800000011920929 C-2.2780001163482666,0.2800000011920929 -2.117000102996826,0.40700000524520874 -2.0739998817443848,0.5870000123977661 C-1.9429999589920044,1.1390000581741333 -1.4500000476837158,1.5299999713897705 -0.8820000290870667,1.5299999713897705 C-0.8820000290870667,1.5299999713897705 0.8870000243186951,1.5299999713897705 0.8870000243186951,1.5299999713897705 C1.4539999961853027,1.5299999713897705 1.9470000267028809,1.1390000581741333 2.078000068664551,0.5870000123977661 C2.121000051498413,0.40700000524520874 2.2820000648498535,0.2800000011920929 2.4670000076293945,0.2800000011920929 C2.4670000076293945,0.2800000011920929 2.492000102996826,0.2800000011920929 2.492000102996826,0.2800000011920929 C2.677000045776367,0.2800000011920929 2.8380000591278076,0.40700000524520874 2.88100004196167,0.5870000123977661 C3.01200008392334,1.1390000581741333 3.505000114440918,1.5299999713897705 4.072000026702881,1.5299999713897705 C4.072000026702881,1.5299999713897705 5.8420000076293945,1.5299999713897705 5.8420000076293945,1.5299999713897705 C6.408999919891357,1.5299999713897705 6.9019999504089355,1.1390000581741333 7.0329999923706055,0.5870000123977661 C7.076000213623047,0.40700000524520874 7.236999988555908,0.2800000011920929 7.421999931335449,0.2800000011920929 C7.52400016784668,0.2800000011920929 7.664000034332275,0.28200000524520874 7.764999866485596,0.2800000011920929 C7.811999797821045,0.27900001406669617 7.8460001945495605,0.28200000524520874 7.84499979019165,0.22699999809265137 C7.8429999351501465,0.10999999940395355 7.8460001945495605,-0.14300000667572021 7.8460001945495605,-0.26600000262260437 C7.8460001945495605,-0.26600000262260437 7.8460001945495605,-0.875 7.8460001945495605,-0.875 C7.8460001945495605,-1.2359999418258667 7.552999973297119,-1.5299999713897705 7.190999984741211,-1.5299999713897705z"/></g><g opacity="1" transform="matrix(1,0,0,1,24.812999725341797,25.108999252319336)"><path fill="rgb(255,254,255)" fill-opacity="1" d=" M-7.177999973297119,0.17599999904632568 C-2.3929998874664307,0.05999999865889549 2.3929998874664307,0.1599999964237213 7.177999973297119,0.04399999976158142 C7.320000171661377,0.03999999910593033 7.320000171661377,-0.18000000715255737 7.177999973297119,-0.1770000010728836 C2.3929998874664307,-0.05999999865889549 -2.3929998874664307,-0.16099999845027924 -7.177999973297119,-0.04500000178813934 C-7.320000171661377,-0.04100000113248825 -7.320000171661377,0.18000000715255737 -7.177999973297119,0.17599999904632568z"/></g></g><g transform="matrix(9.467289924621582,0,0,9.467289924621582,751.8598022460938,736.5934448242188)" opacity="1" style="display: block;"><g opacity="1" transform="matrix(1,0,0,1,4.910999774932861,10.675999641418457)"><path fill="rgb(244,133,109)" fill-opacity="1" d=" M-0.3240000009536743,-7.214000225067139 C-0.3240000009536743,-7.214000225067139 -2.4670000076293945,-4.9019999504089355 -2.4670000076293945,-4.9019999504089355 C-2.4670000076293945,-4.9019999504089355 -2.4670000076293945,7.214000225067139 -2.4670000076293945,7.214000225067139 C-2.4670000076293945,7.214000225067139 2.4670000076293945,7.214000225067139 2.4670000076293945,7.214000225067139 C2.4670000076293945,7.214000225067139 2.4670000076293945,-4.9019999504089355 2.4670000076293945,-4.9019999504089355 C2.4670000076293945,-4.9019999504089355 -0.3240000009536743,-7.214000225067139 -0.3240000009536743,-7.214000225067139z"/></g><g opacity="1" transform="matrix(1,0,0,1,7.815000057220459,10.402999877929688)"><path fill="rgb(251,187,123)" fill-opacity="1" d=" M-3.2290000915527344,-7.486999988555908 C-3.2290000915527344,-7.486999988555908 -3.2290000915527344,-6.940999984741211 -3.2290000915527344,-6.940999984741211 C-3.2290000915527344,-6.940999984741211 -1.2769999504089355,-4.630000114440918 -1.2769999504089355,-4.630000114440918 C-1.2769999504089355,-4.630000114440918 -1.2769999504089355,7.486999988555908 -1.2769999504089355,7.486999988555908 C-1.2769999504089355,7.486999988555908 3.2290000915527344,7.486999988555908 3.2290000915527344,7.486999988555908 C3.2290000915527344,7.486999988555908 3.2290000915527344,-4.630000114440918 3.2290000915527344,-4.630000114440918 C3.2290000915527344,-4.630000114440918 1.2829999923706055,-6.940999984741211 1.2829999923706055,-6.940999984741211 C1.2829999923706055,-6.940999984741211 1.2829999923706055,-7.486999988555908 1.2829999923706055,-7.486999988555908 C1.2829999923706055,-7.486999988555908 -3.2290000915527344,-7.486999988555908 -3.2290000915527344,-7.486999988555908z"/></g><g opacity="1" transform="matrix(1,0,0,1,8.640000343322754,5.811999797821045)"><path fill="rgb(242,114,83)" fill-opacity="1" d=" M-2.061000108718872,0.09600000083446503 C-0.6869999766349792,0.1120000034570694 0.6880000233650208,0.07900000363588333 2.062000036239624,0.09600000083446503 C2.184999942779541,0.09700000286102295 2.184999942779541,-0.09399999678134918 2.062000036239624,-0.0949999988079071 C0.6880000233650208,-0.1120000034570694 -0.6869999766349792,-0.07900000363588333 -2.061000108718872,-0.0949999988079071 C-2.184000015258789,-0.09700000286102295 -2.184999942779541,0.09399999678134918 -2.061000108718872,0.09600000083446503z"/></g><g opacity="1" transform="matrix(1,0,0,1,6.90500020980835,3.499000072479248)"><path fill="rgb(242,114,83)" fill-opacity="1" d=" M-1.9670000076293945,0.10000000149011612 C-0.6549999713897705,0.09600000083446503 0.6570000052452087,0.0949999988079071 1.968999981880188,0.09200000017881393 C2.0920000076293945,0.09099999815225601 2.0920000076293945,-0.10000000149011612 1.968999981880188,-0.0989999994635582 C0.6570000052452087,-0.09600000083446503 -0.6549999713897705,-0.09399999678134918 -1.9670000076293945,-0.09099999815225601 C-2.0899999141693115,-0.09099999815225601 -2.0910000801086426,0.10000000149011612 -1.9670000076293945,0.10000000149011612z"/></g><g opacity="1" transform="matrix(1,0,0,1,11.781999588012695,13.428999900817871)"><path fill="rgb(208,73,67)" fill-opacity="1" d=" M2.4860000610351562,-0.07900000363588333 C2.559999942779541,-0.7720000147819519 2.259000062942505,-1.465000033378601 1.656999945640564,-1.8980000019073486 C1.4160000085830688,-2.072000026702881 1.1119999885559082,-2.2190001010894775 0.7300000190734863,-2.305000066757202 C-0.800000011920929,-2.6500000953674316 -1.5269999504089355,-1.7359999418258667 -1.6230000257492065,-1.5809999704360962 C-1.718999981880188,-1.4259999990463257 -2.559999942779541,-0.6480000019073486 -2.234999895095825,0.8029999732971191 C-1.909999966621399,2.253000020980835 -1.0110000371932983,2.5480000972747803 -0.39899998903274536,2.5999999046325684 C0.21400000154972076,2.6510000228881836 1.437999963760376,2.6510000228881836 1.9539999961853027,1.8569999933242798 C2.2820000648498535,1.3530000448226929 2.424999952316284,0.4860000014305115 2.4860000610351562,-0.07900000363588333z"/></g><g opacity="1" transform="matrix(1,0,0,1,12.6899995803833,11.329000473022461)"><path fill="rgb(99,108,87)" fill-opacity="1" d=" M-0.5270000100135803,0.12800000607967377 C-0.39800000190734863,0.1459999978542328 -0.296999990940094,0.2160000056028366 -0.19699999690055847,0.28299999237060547 C-0.08299999684095383,-0.007000000216066837 0.06599999964237213,-0.3070000112056732 0.2750000059604645,-0.531000018119812 C0.28200000524520874,-0.5590000152587891 0.29899999499320984,-0.5839999914169312 0.3240000009536743,-0.5960000157356262 C0.3400000035762787,-0.6019999980926514 0.35600000619888306,-0.6100000143051147 0.3700000047683716,-0.6200000047683716 C0.48899999260902405,-0.6909999847412109 0.6019999980926514,-0.5410000085830688 0.5400000214576721,-0.4339999854564667 C0.3779999911785126,-0.15399999916553497 0.23600000143051147,0.13199999928474426 0.10400000214576721,0.4259999990463257 C0.11400000005960464,0.4269999861717224 0.12399999797344208,0.42899999022483826 0.13500000536441803,0.4300000071525574 C0.14300000667572021,0.414000004529953 0.1589999943971634,0.4009999930858612 0.18000000715255737,0.39800000190734863 C0.20499999821186066,0.36899998784065247 0.2529999911785126,0.35499998927116394 0.2849999964237213,0.3700000047683716 C0.35199999809265137,0.4009999930858612 0.36000001430511475,0.44200000166893005 0.367000013589859,0.5120000243186951 C0.3709999918937683,0.5609999895095825 0.35899999737739563,0.6140000224113464 0.3089999854564667,0.6370000243186951 C0.1979999989271164,0.6869999766349792 0.07199999690055847,0.6909999847412109 -0.050999999046325684,0.6629999876022339 C-0.1080000028014183,0.6890000104904175 -0.17800000309944153,0.6809999942779541 -0.23399999737739563,0.628000020980835 C-0.25099998712539673,0.6100000143051147 -0.2630000114440918,0.593999981880188 -0.27300000190734863,0.5759999752044678 C-0.42100000381469727,0.48899999260902405 -0.5410000085830688,0.35600000619888306 -0.5899999737739563,0.20200000703334808 C-0.6019999980926514,0.16599999368190765 -0.5640000104904175,0.12300000339746475 -0.5270000100135803,0.12800000607967377z"/></g><g opacity="1" transform="matrix(1,0,0,1,6.982999801635742,13.343999862670898)"><path fill="rgb(249,167,61)" fill-opacity="1" d=" M2.365000009536743,-0.9789999723434448 C2.2230000495910645,-1.6619999408721924 1.7239999771118164,-2.2269999980926514 1.0180000066757202,-2.4560000896453857 C0.7360000014305115,-2.5460000038146973 0.40299999713897705,-2.5940001010894775 0.012000000104308128,-2.558000087738037 C-1.5509999990463257,-2.4170000553131104 -1.9620000123977661,-1.3240000009536743 -2.005000114440918,-1.1460000276565552 C-2.0490000247955322,-0.9679999947547913 -2.611999988555908,0.028999999165534973 -1.8569999933242798,1.309999942779541 C-1.1019999980926514,2.5899999141693115 -0.1550000011920929,2.5940001010894775 0.4429999887943268,2.4560000896453857 C1.0410000085830688,2.316999912261963 2.2070000171661377,1.940999984741211 2.4539999961853027,1.0269999504089355 C2.611999988555908,0.44600000977516174 2.4809999465942383,-0.421999990940094 2.365000009536743,-0.9789999723434448z"/></g><g opacity="1" transform="matrix(1,0,0,1,7.230999946594238,10.871999740600586)"><path fill="rgb(125,136,110)" fill-opacity="1" d=" M-0.46700000762939453,0.33899998664855957 C-0.33899998664855957,0.3160000145435333 -0.22100000083446503,0.35100001096725464 -0.10499999672174454,0.38499999046325684 C-0.0860000029206276,0.0729999989271164 -0.035999998450279236,-0.2590000033378601 0.09399999678134918,-0.5360000133514404 C0.09200000017881393,-0.5640000104904175 0.10000000149011612,-0.593999981880188 0.11999999731779099,-0.6110000014305115 C0.1340000033378601,-0.6230000257492065 0.1469999998807907,-0.6370000243186951 0.15800000727176666,-0.6499999761581421 C0.24899999797344208,-0.7549999952316284 0.4020000100135803,-0.6449999809265137 0.37599998712539673,-0.5249999761581421 C0.3070000112056732,-0.20900000631809235 0.26100000739097595,0.10599999874830246 0.22499999403953552,0.4259999990463257 C0.23499999940395355,0.42399999499320984 0.24400000274181366,0.42399999499320984 0.2549999952316284,0.42100000381469727 C0.2590000033378601,0.40400001406669617 0.26899999380111694,0.3880000114440918 0.2879999876022339,0.3779999911785126 C0.30300000309944153,0.34299999475479126 0.3449999988079071,0.3140000104904175 0.3799999952316284,0.3179999887943268 C0.453000009059906,0.328000009059906 0.4740000069141388,0.36399999260902405 0.5009999871253967,0.42800000309944153 C0.5199999809265137,0.4729999899864197 0.5249999761581421,0.527999997138977 0.48399999737739563,0.5659999847412109 C0.3930000066757202,0.6470000147819519 0.2759999930858612,0.6909999847412109 0.15000000596046448,0.7009999752044678 C0.10400000214576721,0.7429999709129333 0.03400000184774399,0.7559999823570251 -0.03500000014901161,0.7229999899864197 C-0.05700000002980232,0.7120000123977661 -0.07199999690055847,0.6990000009536743 -0.08699999749660492,0.6859999895095825 C-0.2549999952316284,0.6489999890327454 -0.4099999964237213,0.5590000152587891 -0.503000020980835,0.42800000309944153 C-0.5249999761581421,0.39800000190734863 -0.5040000081062317,0.3449999988079071 -0.46700000762939453,0.33899998664855957z"/></g><g opacity="1" transform="matrix(1,0,0,1,17.198999404907227,13.517000198364258)"><path fill="rgb(249,167,61)" fill-opacity="1" d=" M1.4190000295639038,-2.015000104904175 C0.9620000123977661,-2.5409998893737793 0.25099998712539673,-2.7920000553131104 -0.4779999852180481,-2.6480000019073486 C-0.7689999938011169,-2.5889999866485596 -1.0829999446868896,-2.4679999351501465 -1.4079999923706055,-2.246999979019165 C-2.703000068664551,-1.3619999885559082 -2.5290000438690186,-0.20600000023841858 -2.4800000190734863,-0.03099999949336052 C-2.431999921798706,0.14499999582767487 -2.434999942779541,1.2910000085830688 -1.1519999504089355,2.0420000553131104 C0.13099999725818634,2.7920000553131104 0.9580000042915344,2.3340001106262207 1.4129999876022339,1.9210000038146973 C1.8680000305175781,1.5080000162124634 2.7019999027252197,0.6119999885559082 2.4730000495910645,-0.3070000112056732 C2.3269999027252197,-0.890999972820282 1.7920000553131104,-1.5850000381469727 1.4190000295639038,-2.015000104904175z"/></g><g opacity="1" transform="matrix(1,0,0,1,16.26300048828125,11.1850004196167)"><path fill="rgb(125,136,110)" fill-opacity="1" d=" M-0.4650000035762787,0.5680000185966492 C-0.36399999260902405,0.4860000014305115 -0.24500000476837158,0.46000000834465027 -0.12800000607967377,0.4320000112056732 C-0.2619999945163727,0.1509999930858612 -0.3799999952316284,-0.16200000047683716 -0.4020000100135803,-0.46799999475479126 C-0.4169999957084656,-0.492000013589859 -0.4230000078678131,-0.5220000147819519 -0.41499999165534973,-0.5479999780654907 C-0.40799999237060547,-0.5649999976158142 -0.40400001406669617,-0.5809999704360962 -0.4020000100135803,-0.6000000238418579 C-0.3720000088214874,-0.7350000143051147 -0.1850000023841858,-0.7129999995231628 -0.15000000596046448,-0.5960000157356262 C-0.054999999701976776,-0.28600001335144043 0.057999998331069946,0.010999999940395355 0.18199999630451202,0.30799999833106995 C0.1899999976158142,0.3009999990463257 0.19900000095367432,0.29600000381469727 0.20600000023841858,0.289000004529953 C0.20200000703334808,0.2709999978542328 0.2029999941587448,0.2529999911785126 0.2150000035762787,0.23399999737739563 C0.210999995470047,0.19599999487400055 0.23000000417232513,0.1509999930858612 0.2639999985694885,0.13699999451637268 C0.3319999873638153,0.11100000143051147 0.36899998784065247,0.13199999928474426 0.42399999499320984,0.17499999701976776 C0.46299999952316284,0.20499999821186066 0.4950000047683716,0.25200000405311584 0.47699999809265137,0.30300000309944153 C0.43799999356269836,0.4189999997615814 0.35499998927116394,0.5139999985694885 0.25099998712539673,0.5849999785423279 C0.23000000417232513,0.6439999938011169 0.1770000010728836,0.6880000233650208 0.10000000149011612,0.6930000185966492 C0.07599999755620956,0.6940000057220459 0.054999999701976776,0.6909999847412109 0.03500000014901161,0.6859999895095825 C-0.1289999932050705,0.7350000143051147 -0.3089999854564667,0.7329999804496765 -0.45399999618530273,0.6650000214576721 C-0.4880000054836273,0.6480000019073486 -0.49399998784065247,0.5920000076293945 -0.4650000035762787,0.5680000185966492z"/></g><g opacity="1" transform="matrix(1,0,0,1,11.994999885559082,16.496999740600586)"><path fill="rgb(118,83,59)" fill-opacity="1" d=" M-5.3480000495910645,1.3930000066757202 C-5.3480000495910645,1.3930000066757202 5.3480000495910645,1.3930000066757202 5.3480000495910645,1.3930000066757202 C6.886000156402588,1.3930000066757202 8.133000373840332,0.14499999582767487 8.133000373840332,-1.3930000066757202 C8.133000373840332,-1.3930000066757202 -8.133000373840332,-1.3930000066757202 -8.133000373840332,-1.3930000066757202 C-8.133000373840332,0.14499999582767487 -6.88700008392334,1.3930000066757202 -5.3480000495910645,1.3930000066757202z"/></g></g></g></svg>